%TF.GenerationSoftware,KiCad,Pcbnew,9.99.0-744-g582aef0220-dirty*%
%TF.CreationDate,2025-04-01T23:52:54-03:00*%
%TF.ProjectId,Fissioaccess_host_esp32_s3,46697373-696f-4616-9363-6573735f686f,rev?*%
%TF.SameCoordinates,Original*%
%TF.FileFunction,Copper,L1,Top*%
%TF.FilePolarity,Positive*%
%FSLAX46Y46*%
G04 Gerber Fmt 4.6, Leading zero omitted, Abs format (unit mm)*
G04 Created by KiCad (PCBNEW 9.99.0-744-g582aef0220-dirty) date 2025-04-01 23:52:54*
%MOMM*%
%LPD*%
G01*
G04 APERTURE LIST*
G04 Aperture macros list*
%AMRoundRect*
0 Rectangle with rounded corners*
0 $1 Rounding radius*
0 $2 $3 $4 $5 $6 $7 $8 $9 X,Y pos of 4 corners*
0 Add a 4 corners polygon primitive as box body*
4,1,4,$2,$3,$4,$5,$6,$7,$8,$9,$2,$3,0*
0 Add four circle primitives for the rounded corners*
1,1,$1+$1,$2,$3*
1,1,$1+$1,$4,$5*
1,1,$1+$1,$6,$7*
1,1,$1+$1,$8,$9*
0 Add four rect primitives between the rounded corners*
20,1,$1+$1,$2,$3,$4,$5,0*
20,1,$1+$1,$4,$5,$6,$7,0*
20,1,$1+$1,$6,$7,$8,$9,0*
20,1,$1+$1,$8,$9,$2,$3,0*%
G04 Aperture macros list end*
%TA.AperFunction,SMDPad,CuDef*%
%ADD10R,3.025000X1.524000*%
%TD*%
%TA.AperFunction,SMDPad,CuDef*%
%ADD11R,1.700000X0.900000*%
%TD*%
%TA.AperFunction,ComponentPad*%
%ADD12R,1.700000X1.700000*%
%TD*%
%TA.AperFunction,ComponentPad*%
%ADD13C,1.700000*%
%TD*%
%TA.AperFunction,SMDPad,CuDef*%
%ADD14RoundRect,0.035000X-0.105000X0.700000X-0.105000X-0.700000X0.105000X-0.700000X0.105000X0.700000X0*%
%TD*%
%TA.AperFunction,SMDPad,CuDef*%
%ADD15R,0.900000X1.700000*%
%TD*%
%TA.AperFunction,ViaPad*%
%ADD16C,0.600000*%
%TD*%
%TA.AperFunction,Conductor*%
%ADD17C,0.200000*%
%TD*%
G04 APERTURE END LIST*
D10*
%TO.P,U1,5,GPIO5*%
%TO.N,GPIO5*%
X165515000Y-53060000D03*
%TO.P,U1,6,GPIO6*%
%TO.N,GPIO6*%
X165515000Y-55600000D03*
%TO.P,U1,7,GPIO7*%
%TO.N,GPIO7*%
X165515000Y-58140000D03*
%TO.P,U1,8,GPIO8*%
%TO.N,GPIO8*%
X165515000Y-60680000D03*
%TO.P,U1,9,GPIO9*%
%TO.N,GPIO9*%
X165515000Y-63220000D03*
%TO.P,U1,10,GPIO10*%
%TO.N,GPIO10*%
X165515000Y-65760000D03*
%TO.P,U1,20,GPIO20*%
%TO.N,GPIO20*%
X165515000Y-68300000D03*
%TO.P,U1,21,GPIO21*%
%TO.N,GPIO21*%
X165515000Y-70840000D03*
%TO.P,U1,5V,5V*%
%TO.N,+5V*%
X181485000Y-53060000D03*
%TO.P,U1,G,GND*%
%TO.N,GND*%
X181485000Y-55600000D03*
%TO.P,U1,3.3,3V3*%
%TO.N,VCC*%
X181485000Y-58140000D03*
%TO.P,U1,4,GPIO4*%
%TO.N,GPIO4*%
X181485000Y-60680000D03*
%TO.P,U1,3,GPIO3*%
%TO.N,GPIO3*%
X181485000Y-63220000D03*
%TO.P,U1,2,GPIO2*%
%TO.N,GPIO2*%
X181485000Y-65760000D03*
%TO.P,U1,1,GPIO1*%
%TO.N,GPIO1*%
X181485000Y-68300000D03*
%TO.P,U1,0,GPIO0*%
%TO.N,GPIO0*%
X181485000Y-70840000D03*
%TD*%
D11*
%TO.P,C2,1*%
%TO.N,VCC B*%
X177800000Y-78350000D03*
%TO.P,C2,2*%
%TO.N,GND*%
X177800000Y-75450000D03*
%TD*%
%TO.P,R1,1*%
%TO.N,Net-(U2-ALERT{slash}RDY)*%
X169000000Y-82750000D03*
%TO.P,R1,2*%
%TO.N,VCC B*%
X169000000Y-85650000D03*
%TD*%
D12*
%TO.P,J2,1*%
%TO.N,GPIO6*%
X185500000Y-84000000D03*
D13*
%TO.P,J2,2*%
%TO.N,GPIO5*%
X185500000Y-81460000D03*
%TO.P,J2,3*%
%TO.N,GPIO0*%
X185500000Y-78920000D03*
%TO.P,J2,4*%
%TO.N,GPIO1*%
X185500000Y-76380000D03*
%TO.P,J2,5*%
%TO.N,GPIO2*%
X185500000Y-73840000D03*
%TO.P,J2,6*%
%TO.N,GPIO3*%
X185500000Y-71300000D03*
%TO.P,J2,7*%
%TO.N,GPIO4*%
X185500000Y-68760000D03*
%TO.P,J2,8*%
%TO.N,VCC*%
X185500000Y-66220000D03*
%TO.P,J2,9*%
%TO.N,GND*%
X185500000Y-63680000D03*
%TO.P,J2,10*%
%TO.N,+5V*%
X185500000Y-61140000D03*
%TD*%
D11*
%TO.P,L2,1,+*%
%TO.N,VCC B*%
X170400000Y-75450000D03*
%TO.P,L2,2,-*%
%TO.N,VCC*%
X170400000Y-78350000D03*
%TD*%
D14*
%TO.P,U2,1,ADDR*%
%TO.N,Net-(U2-ADDR)*%
X166800000Y-78050000D03*
%TO.P,U2,2,ALERT/RDY*%
%TO.N,Net-(U2-ALERT{slash}RDY)*%
X166300000Y-78050000D03*
%TO.P,U2,3,GND*%
%TO.N,GND*%
X165800000Y-78050000D03*
%TO.P,U2,4,AIN0*%
%TO.N,AIN0*%
X165300000Y-78050000D03*
%TO.P,U2,5,AIN1*%
%TO.N,AIN1*%
X164800000Y-78050000D03*
%TO.P,U2,6,AIN2*%
%TO.N,AIN2*%
X164800000Y-82350000D03*
%TO.P,U2,7,AIN3*%
%TO.N,AIN3*%
X165300000Y-82350000D03*
%TO.P,U2,8,VDD*%
%TO.N,VCC B*%
X165800000Y-82350000D03*
%TO.P,U2,9,SDA*%
%TO.N,GPIO6*%
X166300000Y-82350000D03*
%TO.P,U2,10,SCL*%
%TO.N,GPIO7*%
X166800000Y-82350000D03*
%TD*%
D11*
%TO.P,R2,1*%
%TO.N,Net-(U2-ADDR)*%
X172000000Y-82750000D03*
%TO.P,R2,2*%
%TO.N,VCC B*%
X172000000Y-85650000D03*
%TD*%
%TO.P,R3,1*%
%TO.N,GPIO6*%
X175600000Y-82750000D03*
%TO.P,R3,2*%
%TO.N,VCC B*%
X175600000Y-85650000D03*
%TD*%
D13*
%TO.P,J1,12*%
%TO.N,GPIO7*%
X161500000Y-56060000D03*
%TO.P,J1,11*%
%TO.N,GPIO8*%
X161500000Y-58600000D03*
%TO.P,J1,10*%
%TO.N,GPIO9*%
X161500000Y-61140000D03*
%TO.P,J1,9*%
%TO.N,GPIO10*%
X161500000Y-63680000D03*
%TO.P,J1,8*%
%TO.N,GPIO20*%
X161500000Y-66220000D03*
%TO.P,J1,7*%
%TO.N,GPIO21*%
X161500000Y-68760000D03*
%TO.P,J1,6*%
%TO.N,unconnected-(J1-Pad6)*%
X161500000Y-71300000D03*
%TO.P,J1,5*%
%TO.N,unconnected-(J1-Pad5)*%
X161500000Y-73840000D03*
%TO.P,J1,4*%
%TO.N,AIN3*%
X161500000Y-76380000D03*
%TO.P,J1,3*%
%TO.N,AIN2*%
X161500000Y-78920000D03*
%TO.P,J1,2*%
%TO.N,AIN1*%
X161500000Y-81460000D03*
D12*
%TO.P,J1,1*%
%TO.N,AIN0*%
X161500000Y-84000000D03*
%TD*%
D11*
%TO.P,R4,1*%
%TO.N,GPIO7*%
X178900000Y-82750000D03*
%TO.P,R4,2*%
%TO.N,VCC B*%
X178900000Y-85650000D03*
%TD*%
%TO.P,L1,1,+*%
%TO.N,GND*%
X174100000Y-78350000D03*
%TO.P,L1,2,-*%
X174100000Y-75450000D03*
%TD*%
D15*
%TO.P,C1,1*%
%TO.N,VCC*%
X170750000Y-80800000D03*
%TO.P,C1,2*%
%TO.N,GND*%
X173650000Y-80800000D03*
%TD*%
D16*
%TO.N,GPIO6*%
X179726000Y-83826000D03*
X181200000Y-83900000D03*
%TO.N,VCC*%
X178900000Y-57500000D03*
X178900000Y-58800000D03*
X169800000Y-80400000D03*
X168700000Y-76900000D03*
%TO.N,GPIO7*%
X168000000Y-58800000D03*
X165900000Y-80700000D03*
%TO.N,GND*%
X183800000Y-55600000D03*
X179200000Y-56400000D03*
X179200000Y-55000000D03*
X177800000Y-76900000D03*
X175000000Y-76900000D03*
X165800000Y-76700000D03*
%TD*%
D17*
%TO.N,GPIO7*%
X168000000Y-58800000D02*
X167340000Y-58140000D01*
X167340000Y-58140000D02*
X165515000Y-58140000D01*
%TO.N,GPIO6*%
X179726000Y-83826000D02*
X179651000Y-83901000D01*
%TO.N,VCC*%
X168700000Y-76900000D02*
X168950000Y-76900000D01*
X168950000Y-76900000D02*
X170400000Y-78350000D01*
X169800000Y-80400000D02*
X170350000Y-80400000D01*
X170350000Y-80400000D02*
X170750000Y-80800000D01*
X178900000Y-58800000D02*
X179200000Y-59100000D01*
X179200000Y-59100000D02*
X180525000Y-59100000D01*
X180525000Y-59100000D02*
X181485000Y-58140000D01*
X178900000Y-57500000D02*
X179540000Y-58140000D01*
X179540000Y-58140000D02*
X181485000Y-58140000D01*
%TO.N,GND*%
X186000000Y-64180000D02*
X185500000Y-63680000D01*
X185500000Y-63680000D02*
X185500000Y-64300000D01*
X179200000Y-55000000D02*
X179800000Y-55600000D01*
X179800000Y-55600000D02*
X181485000Y-55600000D01*
X179200000Y-56400000D02*
X180685000Y-56400000D01*
X180685000Y-56400000D02*
X181485000Y-55600000D01*
X183800000Y-55600000D02*
X181485000Y-55600000D01*
X165800000Y-76700000D02*
X165800000Y-78050000D01*
X175000000Y-76900000D02*
X175000000Y-76350000D01*
X175000000Y-76350000D02*
X174100000Y-75450000D01*
X177800000Y-75450000D02*
X177800000Y-76900000D01*
%TO.N,GPIO5*%
X179624250Y-66775750D02*
X179671500Y-66823000D01*
X184349000Y-80309000D02*
X185500000Y-81460000D01*
X179624250Y-66775750D02*
X179624250Y-74238050D01*
X179624250Y-74238050D02*
X184349000Y-78962800D01*
X184349000Y-78962800D02*
X184349000Y-80309000D01*
%TO.N,GPIO6*%
X165515000Y-55600000D02*
X166954000Y-55600000D01*
X166954000Y-55600000D02*
X176300000Y-64946000D01*
X181200000Y-83900000D02*
X181300000Y-84000000D01*
X176300000Y-64946000D02*
X176300000Y-72500000D01*
X179352000Y-77100000D02*
X181100000Y-78848000D01*
X176300000Y-72500000D02*
X177700000Y-73900000D01*
X177700000Y-73900000D02*
X178719100Y-73900000D01*
X178719100Y-73900000D02*
X179352000Y-74532900D01*
X179352000Y-74532900D02*
X179352000Y-77100000D01*
X181100000Y-78848000D02*
X181100000Y-83900000D01*
X181100000Y-83900000D02*
X181200000Y-83900000D01*
X181300000Y-84000000D02*
X185500000Y-84000000D01*
%TO.N,GPIO7*%
X165515000Y-58140000D02*
X163580000Y-58140000D01*
X163580000Y-58140000D02*
X161500000Y-56060000D01*
%TO.N,GPIO8*%
X165515000Y-60680000D02*
X163580000Y-60680000D01*
X163580000Y-60680000D02*
X161500000Y-58600000D01*
%TO.N,GPIO9*%
X165515000Y-63220000D02*
X163580000Y-63220000D01*
X163580000Y-63220000D02*
X161500000Y-61140000D01*
%TO.N,GPIO10*%
X165515000Y-65760000D02*
X163580000Y-65760000D01*
X163580000Y-65760000D02*
X161500000Y-63680000D01*
%TO.N,GPIO20*%
X165515000Y-68300000D02*
X163580000Y-68300000D01*
X163580000Y-68300000D02*
X161500000Y-66220000D01*
%TO.N,GPIO21*%
X165515000Y-70840000D02*
X163580000Y-70840000D01*
X163580000Y-70840000D02*
X161500000Y-68760000D01*
%TO.N,VCC B*%
X177800000Y-78350000D02*
X178951000Y-77199000D01*
X178951000Y-77199000D02*
X178951000Y-74699000D01*
X178951000Y-74699000D02*
X171151000Y-74699000D01*
X171151000Y-74699000D02*
X170400000Y-75450000D01*
%TO.N,GND*%
X174100000Y-78350000D02*
X174100000Y-80350000D01*
X174100000Y-80350000D02*
X173650000Y-80800000D01*
X174100000Y-75450000D02*
X177800000Y-75450000D01*
X174100000Y-78350000D02*
X174100000Y-75450000D01*
%TO.N,VCC B*%
X178900000Y-85650000D02*
X180452000Y-84098000D01*
X180452000Y-84098000D02*
X180452000Y-81002000D01*
X180452000Y-81002000D02*
X177800000Y-78350000D01*
%TO.N,GPIO6*%
X175600000Y-82750000D02*
X176351000Y-81999000D01*
X176351000Y-81999000D02*
X180051000Y-81999000D01*
X180051000Y-81999000D02*
X180051000Y-83501000D01*
X180051000Y-83501000D02*
X179726000Y-83826000D01*
X179651000Y-83901000D02*
X166871854Y-83901000D01*
X166871854Y-83901000D02*
X166300000Y-83329146D01*
X166300000Y-83329146D02*
X166300000Y-82350000D01*
%TO.N,GPIO7*%
X178900000Y-82750000D02*
X178150000Y-83500000D01*
X178150000Y-83500000D02*
X167950000Y-83500000D01*
X167950000Y-83500000D02*
X166800000Y-82350000D01*
%TO.N,VCC*%
X170400000Y-78350000D02*
X170400000Y-80450000D01*
X170400000Y-80450000D02*
X170750000Y-80800000D01*
%TO.N,Net-(U2-ADDR)*%
X170950000Y-82750000D02*
X166800000Y-78600000D01*
X166800000Y-78600000D02*
X166800000Y-78050000D01*
%TO.N,Net-(U2-ALERT{slash}RDY)*%
X169000000Y-82750000D02*
X166300000Y-80050000D01*
X166300000Y-80050000D02*
X166300000Y-78050000D01*
%TO.N,VCC B*%
X175600000Y-85650000D02*
X178900000Y-85650000D01*
X172000000Y-85650000D02*
X175600000Y-85650000D01*
X169000000Y-85650000D02*
X172000000Y-85650000D01*
X169000000Y-85650000D02*
X167950000Y-85650000D01*
X167950000Y-85650000D02*
X165800000Y-83500000D01*
X165800000Y-83500000D02*
X165800000Y-82350000D01*
%TO.N,AIN3*%
X161500000Y-76380000D02*
X159900000Y-77980000D01*
X159900000Y-77980000D02*
X159900000Y-85269100D01*
X159900000Y-85269100D02*
X160182900Y-85552000D01*
X160182900Y-85552000D02*
X162915100Y-85552000D01*
X162915100Y-85552000D02*
X165300000Y-83167100D01*
X165300000Y-83167100D02*
X165300000Y-82350000D01*
%TO.N,AIN2*%
X161500000Y-78920000D02*
X160349000Y-80071000D01*
X160349000Y-85151000D02*
X162749000Y-85151000D01*
X160349000Y-80071000D02*
X160349000Y-85151000D01*
X162749000Y-85151000D02*
X164800000Y-83100000D01*
X164800000Y-83100000D02*
X164800000Y-82350000D01*
%TO.N,AIN1*%
X161500000Y-81460000D02*
X164800000Y-78160000D01*
X164800000Y-78160000D02*
X164800000Y-78050000D01*
%TO.N,AIN0*%
X161500000Y-84000000D02*
X165300000Y-80200000D01*
X165300000Y-80200000D02*
X165300000Y-78050000D01*
%TO.N,GPIO5*%
X165515000Y-53060000D02*
X165908500Y-53060000D01*
X165908500Y-53060000D02*
X179624250Y-66775750D01*
%TO.N,VCC*%
X181485000Y-58140000D02*
X182235500Y-58140000D01*
X186651000Y-63203240D02*
X186651000Y-65069000D01*
X182235500Y-58140000D02*
X184300000Y-60204500D01*
X184300000Y-60204500D02*
X184300000Y-61805760D01*
X184300000Y-61805760D02*
X185023240Y-62529000D01*
X186651000Y-65069000D02*
X185500000Y-66220000D01*
X185023240Y-62529000D02*
X185976760Y-62529000D01*
X185976760Y-62529000D02*
X186651000Y-63203240D01*
%TO.N,GPIO0*%
X181485000Y-70840000D02*
X181485000Y-74905000D01*
X181485000Y-74905000D02*
X185500000Y-78920000D01*
%TO.N,GPIO2*%
X183400000Y-66924500D02*
X183400000Y-69300000D01*
X183400000Y-69300000D02*
X183948000Y-69848000D01*
X183948000Y-69848000D02*
X183948000Y-72288000D01*
X183948000Y-72288000D02*
X185500000Y-73840000D01*
%TO.N,GPIO3*%
X183948000Y-67775100D02*
X184402570Y-68229670D01*
X184402570Y-68229670D02*
X184349000Y-68283240D01*
X183948000Y-64932500D02*
X183948000Y-67775100D01*
X184349000Y-68283240D02*
X184349000Y-70149000D01*
X184349000Y-70149000D02*
X185500000Y-71300000D01*
%TO.N,GPIO1*%
X183300000Y-69778500D02*
X183300000Y-76100000D01*
X181821500Y-68300000D02*
X183300000Y-69778500D01*
X181485000Y-68300000D02*
X181821500Y-68300000D01*
X183300000Y-76100000D02*
X183580000Y-76380000D01*
X183580000Y-76380000D02*
X185500000Y-76380000D01*
%TO.N,GPIO2*%
X181485000Y-65760000D02*
X182235500Y-65760000D01*
X182235500Y-65760000D02*
X183400000Y-66924500D01*
%TO.N,GPIO3*%
X181485000Y-63220000D02*
X182235500Y-63220000D01*
X182235500Y-63220000D02*
X183948000Y-64932500D01*
%TO.N,GPIO4*%
X181485000Y-60680000D02*
X181825760Y-60680000D01*
X181825760Y-60680000D02*
X184349000Y-63203240D01*
X184349000Y-63203240D02*
X184349000Y-67609000D01*
X184349000Y-67609000D02*
X185500000Y-68760000D01*
%TO.N,+5V*%
X181485000Y-53060000D02*
X182235500Y-53060000D01*
X182235500Y-53060000D02*
X185500000Y-56324500D01*
X185500000Y-56324500D02*
X185500000Y-61140000D01*
%TO.N,VCC B*%
X170150000Y-75200000D02*
X170400000Y-75450000D01*
%TO.N,Net-(U2-ADDR)*%
X172000000Y-82750000D02*
X170950000Y-82750000D01*
%TD*%
M02*
