%TF.GenerationSoftware,KiCad,Pcbnew,9.99.0-744-g582aef0220-dirty*%
%TF.CreationDate,2025-04-01T23:52:54-03:00*%
%TF.ProjectId,Fissioaccess_host_esp32_s3,46697373-696f-4616-9363-6573735f686f,rev?*%
%TF.SameCoordinates,Original*%
%TF.FileFunction,Soldermask,Top*%
%TF.FilePolarity,Negative*%
%FSLAX46Y46*%
G04 Gerber Fmt 4.6, Leading zero omitted, Abs format (unit mm)*
G04 Created by KiCad (PCBNEW 9.99.0-744-g582aef0220-dirty) date 2025-04-01 23:52:54*
%MOMM*%
%LPD*%
G01*
G04 APERTURE LIST*
G04 Aperture macros list*
%AMRoundRect*
0 Rectangle with rounded corners*
0 $1 Rounding radius*
0 $2 $3 $4 $5 $6 $7 $8 $9 X,Y pos of 4 corners*
0 Add a 4 corners polygon primitive as box body*
4,1,4,$2,$3,$4,$5,$6,$7,$8,$9,$2,$3,0*
0 Add four circle primitives for the rounded corners*
1,1,$1+$1,$2,$3*
1,1,$1+$1,$4,$5*
1,1,$1+$1,$6,$7*
1,1,$1+$1,$8,$9*
0 Add four rect primitives between the rounded corners*
20,1,$1+$1,$2,$3,$4,$5,0*
20,1,$1+$1,$4,$5,$6,$7,0*
20,1,$1+$1,$6,$7,$8,$9,0*
20,1,$1+$1,$8,$9,$2,$3,0*%
G04 Aperture macros list end*
%ADD10RoundRect,0.102000X-1.512500X-0.762000X1.512500X-0.762000X1.512500X0.762000X-1.512500X0.762000X0*%
%ADD11R,1.700000X0.900000*%
%ADD12R,1.700000X1.700000*%
%ADD13C,1.700000*%
%ADD14RoundRect,0.060500X-0.181500X0.776500X-0.181500X-0.776500X0.181500X-0.776500X0.181500X0.776500X0*%
%ADD15R,0.900000X1.700000*%
G04 APERTURE END LIST*
D10*
%TO.C,U1*%
X165515000Y-53060000D03*
X165515000Y-55600000D03*
X165515000Y-58140000D03*
X165515000Y-60680000D03*
X165515000Y-63220000D03*
X165515000Y-65760000D03*
X165515000Y-68300000D03*
X165515000Y-70840000D03*
X181485000Y-53060000D03*
X181485000Y-55600000D03*
X181485000Y-58140000D03*
X181485000Y-60680000D03*
X181485000Y-63220000D03*
X181485000Y-65760000D03*
X181485000Y-68300000D03*
X181485000Y-70840000D03*
%TD*%
D11*
%TO.C,C2*%
X177800000Y-78350000D03*
X177800000Y-75450000D03*
%TD*%
%TO.C,R1*%
X169000000Y-82750000D03*
X169000000Y-85650000D03*
%TD*%
D12*
%TO.C,J2*%
X185500000Y-84000000D03*
D13*
X185500000Y-81460000D03*
X185500000Y-78920000D03*
X185500000Y-76380000D03*
X185500000Y-73840000D03*
X185500000Y-71300000D03*
X185500000Y-68760000D03*
X185500000Y-66220000D03*
X185500000Y-63680000D03*
X185500000Y-61140000D03*
%TD*%
D11*
%TO.C,L2*%
X170400000Y-75450000D03*
X170400000Y-78350000D03*
%TD*%
D14*
%TO.C,U2*%
X166800000Y-78050000D03*
X166300000Y-78050000D03*
X165800000Y-78050000D03*
X165300000Y-78050000D03*
X164800000Y-78050000D03*
X164800000Y-82350000D03*
X165300000Y-82350000D03*
X165800000Y-82350000D03*
X166300000Y-82350000D03*
X166800000Y-82350000D03*
%TD*%
D11*
%TO.C,R2*%
X172000000Y-82750000D03*
X172000000Y-85650000D03*
%TD*%
%TO.C,R3*%
X175600000Y-82750000D03*
X175600000Y-85650000D03*
%TD*%
D13*
%TO.C,J1*%
X161500000Y-56060000D03*
X161500000Y-58600000D03*
X161500000Y-61140000D03*
X161500000Y-63680000D03*
X161500000Y-66220000D03*
X161500000Y-68760000D03*
X161500000Y-71300000D03*
X161500000Y-73840000D03*
X161500000Y-76380000D03*
X161500000Y-78920000D03*
X161500000Y-81460000D03*
D12*
X161500000Y-84000000D03*
%TD*%
D11*
%TO.C,R4*%
X178900000Y-82750000D03*
X178900000Y-85650000D03*
%TD*%
%TO.C,L1*%
X174100000Y-78350000D03*
X174100000Y-75450000D03*
%TD*%
D15*
%TO.C,C1*%
X170750000Y-80800000D03*
X173650000Y-80800000D03*
%TD*%
M02*
