M48
INCH
T1C0.0118
T2C0.0394
%
G90
G05
T1
X6.5276Y-3.0197
X6.5315Y-3.1772
X6.6142Y-2.315
X6.6417Y-3.0276
X6.685Y-3.1654
X6.8898Y-3.0276
X7.0Y-3.0276
X7.0433Y-2.2638
X7.0433Y-2.315
X7.0551Y-2.1654
X7.0551Y-2.2205
X7.0758Y-3.3002
X7.1339Y-3.3031
X7.2362Y-2.189
T2
X6.3583Y-2.2071
X6.3583Y-2.3071
X6.3583Y-2.4071
X6.3583Y-2.5071
X6.3583Y-2.6071
X6.3583Y-2.7071
X6.3583Y-2.8071
X6.3583Y-2.9071
X6.3583Y-3.0071
X6.3583Y-3.1071
X6.3583Y-3.2071
X6.3583Y-3.3071
X7.3031Y-2.4071
X7.3031Y-2.5071
X7.3031Y-2.6071
X7.3031Y-2.7071
X7.3031Y-2.8071
X7.3031Y-2.9071
X7.3031Y-3.0071
X7.3031Y-3.1071
X7.3031Y-3.2071
X7.3031Y-3.3071
M30
