<?xml version="1.0" encoding="UTF-8" standalone="no"?>
<!-- Created with Inkscape (http://www.inkscape.org/) -->

<svg
   width="210mm"
   height="297mm"
   viewBox="0 0 210 297"
   version="1.1"
   id="svg1"
   xml:space="preserve"
   inkscape:version="1.3.2 (091e20ef0f, 2023-11-25, custom)"
   sodipodi:docname="logo.svg"
   xmlns:inkscape="http://www.inkscape.org/namespaces/inkscape"
   xmlns:sodipodi="http://sodipodi.sourceforge.net/DTD/sodipodi-0.dtd"
   xmlns="http://www.w3.org/2000/svg"
   xmlns:svg="http://www.w3.org/2000/svg"><sodipodi:namedview
     id="namedview1"
     pagecolor="#ffffff"
     bordercolor="#000000"
     borderopacity="0.25"
     inkscape:showpageshadow="2"
     inkscape:pageopacity="0.0"
     inkscape:pagecheckerboard="0"
     inkscape:deskcolor="#d1d1d1"
     inkscape:document-units="mm"
     inkscape:zoom="0.5"
     inkscape:cx="222"
     inkscape:cy="615"
     inkscape:window-width="1920"
     inkscape:window-height="1015"
     inkscape:window-x="1080"
     inkscape:window-y="0"
     inkscape:window-maximized="1"
     inkscape:current-layer="layer1" /><defs
     id="defs1" /><g
     inkscape:label="Capa 1"
     inkscape:groupmode="layer"
     id="layer1"><path
       style="fill:#000000;stroke-width:0.627446"
       d="m 186.31748,193.13338 c -0.0995,0 -0.1189,0.19544 -0.043,0.43433 0.16099,0.50724 -0.25457,1.40881 -0.56183,1.21892 -0.11563,-0.0715 -0.21025,0.0563 -0.21025,0.28408 0,0.22771 -0.17431,0.6072 -0.38736,0.84331 -0.21305,0.2361 -0.67959,0.82008 -1.03676,1.29774 -1.8617,2.48969 -3.9223,3.89608 -7.20104,4.91484 l -1.6676,0.51814 -65.93009,0.003 c -59.466575,0.003 -66.063428,-0.0311 -67.29014,-0.34756 -3.026527,-0.78082 -5.974786,-2.91137 -7.774112,-5.61794 -1.674156,-2.51829 -1.901753,-3.44435 -2.096297,-8.52955 -0.09315,-2.43484 -0.149992,-27.78484 -0.126316,-56.33335 0.03297,-39.746066 0.105833,-52.165646 0.311046,-53.013116 0.457012,-1.88731 1.89245,-4.55188 3.271235,-6.07231 1.617495,-1.78366 3.402433,-2.94746 5.70109,-3.71718 l 1.788149,-0.59878 9.352001,-0.0779 c 5.57744,-0.0465 9.352,-0.16121 9.352,-0.28426 0,-0.11348 0.199214,-0.40555 0.442699,-0.64903 0.417052,-0.41705 0.73783,-0.4427 5.537309,-0.4427 h 5.094611 l 0.350849,0.73574 c 0.346294,0.72619 0.36708,0.73447 1.601201,0.63812 1.012868,-0.0791 1.340257,-0.20744 1.723714,-0.67577 l 0.473358,-0.57815 3.289579,0.0646 c 3.308525,0.065 3.619569,0.14137 3.890789,0.95504 0.03551,0.10657 20.229245,0.22115 45.550565,0.25845 48.16581,0.071 45.91143,0.0244 48.03227,0.99174 1.04306,0.47575 3.07546,1.70515 3.64224,2.20319 0.31172,0.27392 0.71542,0.49803 0.89711,0.49803 0.18168,0 0.31854,0.0747 0.30413,0.16602 -0.0721,0.45657 0.0588,0.71938 0.35823,0.71938 0.18261,0 0.33202,0.11353 0.33202,0.25228 0,0.13876 0.14009,0.36288 0.31131,0.49804 0.17121,0.13516 0.84356,1.24182 1.4941,2.45924 l 1.1828,2.2135 0.11068,57.384756 c 0.0609,31.56163 0.0292,57.38478 -0.0703,57.38477 z M 183.3222,78.824234 c -0.26296,-0.72072 -0.71654,-1.71679 -1.00794,-2.21349 -0.79275,-1.35124 -2.85587,-3.30493 -4.30658,-4.07815 -2.73344,-1.45691 0.59782,-1.36284 -48.16583,-1.36019 -38.577034,0.002 -44.418566,0.0449 -45.365239,0.33202 -1.551493,0.47066 -7.48695,0.46885 -7.878056,-0.003 -0.194929,-0.23488 -0.710922,-0.33202 -1.763589,-0.33202 -1.222102,0 -1.561891,0.0816 -1.901318,0.45667 -0.402401,0.44465 -0.544688,0.45267 -5.402023,0.30434 -3.93285,-0.1201 -5.068425,-0.22194 -5.365241,-0.48116 -0.320484,-0.27989 -1.665315,-0.3247 -9.038385,-0.30115 -8.749766,0.0279 -9.454373,0.0815 -11.814372,0.89748 -2.992794,1.0348 -5.510714,4.00955 -6.182859,7.3046 -0.190807,0.93538 -0.250628,15.48627 -0.233518,56.800676 0.02101,50.72633 0.05438,55.64665 0.384781,56.73671 0.531772,1.75441 1.275437,2.88653 2.885349,4.39252 1.493878,1.39756 2.908551,2.09522 5.085564,2.50808 0.658464,0.12487 26.787446,0.20653 66.084606,0.20653 h 64.99555 l 1.65567,-0.45849 c 2.10196,-0.58209 3.57254,-1.42429 5.00982,-2.86913 1.30094,-1.30778 2.15842,-2.76228 2.56496,-4.3508 0.22519,-0.87994 0.27753,-12.30662 0.25943,-56.64223 l -0.0226,-55.539896 z M 171.19564,190.63439 c -0.44851,1.30546 -1.75712,2.64598 -3.34703,3.4287 l -1.48366,0.7304 -58.66219,-4.4e-4 c -54.34907,-4.1e-4 -58.722215,-0.0277 -59.478861,-0.37048 -1.245011,-0.56411 -2.732029,-2.06064 -3.254613,-3.27541 l -0.46919,-1.09067 -0.0016,-54.57339 c -0.0014,-46.583126 0.04429,-54.683266 0.311935,-55.323846 0.482013,-1.15361 1.897515,-2.58396 3.123438,-3.1562 l 1.106745,-0.5166 58.728806,-10e-4 58.72881,-0.001 1.23198,0.58281 c 1.34488,0.63623 2.69189,1.85448 3.31734,3.00021 0.38156,0.69896 0.39914,3.13387 0.39914,55.283696 0,40.09045 -0.0666,54.74624 -0.25103,55.28317 z M 168.28976,80.393384 c -1.30856,-1.39333 -0.35553,-1.33396 -20.41678,-1.27187 -10.04372,0.0311 -18.30893,0.10356 -18.36714,0.16106 -0.0582,0.0575 -0.10801,1.24137 -0.11067,2.63082 l -0.005,2.52627 -0.62454,0.13738 c -0.34349,0.0756 -0.69212,0.0701 -0.77472,-0.0122 -0.0826,-0.0823 -0.18343,-1.33683 -0.22406,-2.78793 l -0.0739,-2.63837 -7.23065,-0.047 c -15.93219,-0.10352 -31.736889,-0.0547 -31.831753,0.0983 -0.05521,0.0891 -0.09858,1.30198 -0.09635,2.69537 l 0.0038,2.53341 -0.673388,0.1479 c -0.370369,0.0814 -0.736892,0.0844 -0.814494,0.007 -0.0776,-0.0776 -0.162678,-1.34137 -0.18905,-2.80835 -0.02635,-1.46699 -0.08027,-2.68397 -0.11976,-2.70441 -0.03947,-0.0205 -8.508854,-0.003 -18.820797,0.0388 l -18.748992,0.0759 -1.007755,0.88706 -1.007754,0.88706 0.05667,17.41126 0.05667,17.411256 1.715455,0.0646 1.715456,0.0647 v 0.74173 c 0,0.89947 -0.232926,1.01044 -2.12092,1.01044 h -1.420718 v 17.92928 17.92929 l 1.383432,0.003 c 1.992712,0.004 2.379503,0.14779 2.379503,0.88237 0,0.73459 -0.386791,0.87802 -2.379503,0.88238 l -1.383432,0.003 v 17.46957 17.4696 l 0.579739,0.68898 c 1.188767,1.41277 0.03262,1.33712 20.437436,1.33712 h 18.604326 l 0.0025,-1.38343 c 0.0013,-0.76088 0.06417,-1.75695 0.139638,-2.21349 0.126907,-0.76778 0.193147,-0.83006 0.882955,-0.83006 H 88.551 v 2.2135 2.21348 h 19.47872 19.47872 l 0.0338,-0.83005 c 0.0186,-0.45654 0.0532,-1.07908 0.0769,-1.38343 0.0237,-0.30436 0.0583,-0.97671 0.0769,-1.49411 0.0331,-0.92113 0.0499,-0.94074 0.80849,-0.94074 h 0.77472 l 0.002,1.49411 c 0.001,0.82176 0.0644,1.86876 0.14004,2.32666 l 0.13761,0.83255 17.95526,-0.0103 c 9.87538,-0.006 18.34172,-0.0989 18.81408,-0.20702 0.51169,-0.11717 1.2051,-0.53477 1.71546,-1.03312 l 0.85662,-0.83647 v -17.44165 -17.44167 h -0.75662 c -1.07524,0 -1.45688,-0.19754 -1.45688,-0.75413 0,-0.70212 0.41767,-1.01666 1.34999,-1.01666 h 0.81873 l -0.0329,-17.92928 -0.0329,-17.92928 h -0.94073 c -0.92191,0 -0.94074,-0.0151 -0.94074,-0.75104 0,-0.82526 0.26733,-1.01977 1.40154,-1.01973 l 0.70128,2e-5 -0.058,-17.421946 -0.058,-17.42195 z m -2.85641,74.741716 c -0.0812,0.0812 -0.73493,0.14757 -1.4528,0.14757 h -1.30523 l 0.0694,-0.71939 c 0.0694,-0.71934 0.0694,-0.71938 1.45279,-0.78528 l 1.38343,-0.0659 v 0.63772 c 0,0.35074 -0.0664,0.70412 -0.14756,0.78528 z m 0.0922,-37.68184 c -0.0304,0.0117 -0.67788,0.0548 -1.43876,0.0957 l -1.38344,0.0744 v -0.75976 -0.75976 h 1.43877 1.43877 v 0.66405 c 0,0.36523 -0.0249,0.67363 -0.0553,0.68534 z m -5.86575,37.82602 c -1.51046,-0.004 -1.8906,-0.19663 -1.79016,-0.90704 0.0692,-0.48953 0.18445,-0.53315 1.56881,-0.59379 l 1.49411,-0.0655 v 0.78484 0.78483 z m 1.23212,-37.83602 c -0.0385,0.006 -0.74689,0.0311 -1.57416,0.0553 l -1.50412,0.044 0.0653,-0.66405 c 0.0653,-0.66302 0.0676,-0.66405 1.50413,-0.66405 1.40502,0 1.44041,0.0143 1.5088,0.60871 0.0385,0.3348 0.0385,0.6138 0,0.62001 z m -5.2758,37.73125 c -0.13793,0.0852 -0.79108,0.0875 -1.45146,0.005 -1.15073,-0.14378 -1.20067,-0.17742 -1.20067,-0.8087 v -0.65868 l 1.38343,0.0659 c 1.31316,0.0626 1.38689,0.0958 1.45146,0.65371 0.0374,0.3233 -0.0448,0.65755 -0.18276,0.7428 z m -0.86323,-37.74254 c -0.59875,0 -1.2462,0.0605 -1.43877,0.13435 -0.27939,0.10721 -0.35013,-0.0269 -0.35013,-0.66404 v -0.79841 h 1.43877 1.43877 v 0.66405 c 0,0.64782 -0.0266,0.66405 -1.08864,0.66405 z m -3.91927,0.0644 c -0.0863,0.0863 -0.62768,0.15691 -1.20308,0.15691 -1.04928,0 -1.31488,-0.2071 -1.31488,-1.02523 0,-0.25574 0.27112,-0.31082 1.27276,-0.25858 1.08637,0.0567 1.28223,0.13254 1.33743,0.51819 0.0356,0.24849 -0.006,0.52242 -0.0922,0.60871 z m -1.42592,37.56491 c -1.33428,0 -1.34235,-0.004 -1.27276,-0.60871 0.0663,-0.57624 0.13793,-0.61225 1.3428,-0.6751 l 1.27276,-0.0664 v 0.6751 0.67509 z m -2.71253,-37.50326 c -0.16081,0.0617 -0.73355,0.0835 -1.27275,0.0484 -0.75733,-0.0493 -1.01014,-0.16453 -1.11123,-0.50651 -0.20491,-0.69319 0.20547,-0.99607 1.34957,-0.99607 0.90574,0 1.07258,0.07 1.18729,0.49803 0.19204,0.71657 0.17376,0.83082 -0.15288,0.95616 z m -1.27107,37.72461 h -1.34212 l 0.0694,-0.71939 c 0.0617,-0.63938 0.15277,-0.72735 0.81937,-0.79102 1.30616,-0.12478 1.79551,0.10705 1.79551,0.85058 0,0.65966 -3.5e-4,0.65983 -1.34212,0.65983 z m -3.73421,-37.8507 c -0.6168,0 -1.19615,0.004 -1.28746,0.009 -0.0913,0.005 -0.19696,-0.18765 -0.23478,-0.42772 -0.0908,-0.57654 0.64053,-0.95315 1.68292,-0.86661 0.71056,0.059 0.83009,0.14982 0.89072,0.67685 0.0683,0.59317 0.0414,0.60872 -1.0514,0.60872 z m -0.0885,37.8507 c -1.15281,0 -1.20412,-0.0409 -1.08331,-0.86412 0.18031,-1.22853 2.04248,-1.05111 2.04248,0.19459 0,0.64214 -0.0392,0.66953 -0.95917,0.66953 z m -3.3018,-0.16346 c -0.63915,0.0628 -1.22018,0.0799 -1.29119,0.0379 -0.071,-0.042 -0.0846,-0.37951 -0.0302,-0.7501 0.0903,-0.61543 0.17183,-0.67379 0.94106,-0.67379 1.16852,0 1.54242,0.18671 1.54242,0.77024 0,0.44295 -0.13573,0.51487 -1.16208,0.61574 z m -0.33203,-37.63538 c -1.24051,0.11377 -1.48949,-0.0419 -1.2966,-0.81038 0.1102,-0.43907 0.28146,-0.56888 0.74745,-0.56656 1.11721,0.006 1.60057,0.2397 1.60057,0.77523 0,0.44168 -0.13234,0.51741 -1.05142,0.60171 z m -2.84975,37.42058 c -0.0863,0.0863 -0.67984,0.15691 -1.31899,0.15691 -1.19602,0 -1.44291,-0.18855 -1.24514,-0.95093 0.0865,-0.33358 0.30335,-0.38701 1.34741,-0.33202 1.05801,0.0557 1.25395,0.13316 1.30895,0.51734 0.0356,0.24849 -0.006,0.52241 -0.0922,0.6087 z m -0.13846,-37.59363 c -0.64451,0.20096 -2.39562,0.2742 -2.50045,0.10457 -0.0627,-0.10141 -0.0503,-0.43797 0.0275,-0.74793 0.12418,-0.49478 0.25786,-0.56355 1.09541,-0.56355 0.52469,0 1.11153,0.0605 1.3041,0.13436 0.4155,0.15944 0.46956,0.94905 0.0734,1.07255 z m -4.49692,39.06565 c -1.07088,1.18533 -1.97875,1.46986 -3.16963,0.99337 -0.5016,-0.20071 -1.20858,-0.73937 -1.57105,-1.19703 -0.50277,-0.6348 -0.87342,-0.86641 -1.56304,-0.97668 -0.8255,-0.132 -0.89795,-0.19698 -0.83442,-0.74837 0.0574,-0.49842 0.19226,-0.61571 0.77244,-0.67195 0.49985,-0.0484 0.87591,-0.29499 1.30194,-0.85355 1.05705,-1.38587 2.90234,-1.7876 4.49019,-0.97754 0.98155,0.50075 1.36289,1.2207 1.36289,2.57305 0,0.8183 -0.13359,1.13289 -0.78932,1.8587 z m -2.0144,-2.43402 c -0.71138,-0.23478 -0.84696,-0.21946 -1.09817,0.12409 -0.38983,0.53312 -0.007,1.21617 0.68202,1.21617 1.43788,0 1.72038,-0.90982 0.41615,-1.34026 z m 1.78065,-35.0115 c -0.98183,0.94075 -1.01776,1.01941 -0.89035,1.94899 0.18309,1.33576 0.019,1.64314 -0.87708,1.64314 h -0.75104 l -6e-4,-1.27276 c -5.8e-4,-1.2434 -0.0197,-1.28297 -0.82833,-1.71546 -0.45525,-0.24348 -1.07599,-0.82654 -1.37942,-1.29569 -0.52431,-0.81066 -0.59855,-0.84771 -1.49584,-0.74657 -0.98661,0.1112 -1.05332,0.0374 -0.80463,-0.89061 0.10331,-0.38551 0.29423,-0.49804 0.84497,-0.49804 0.53008,0 0.78611,-0.1394 1.0041,-0.54672 0.40022,-0.74782 1.76816,-1.65768 2.72594,-1.81311 0.91317,-0.14818 1.99086,0.40819 2.91267,1.5037 0.42405,0.50394 0.56272,0.91938 0.56272,1.68578 0,0.92039 -0.0972,1.11018 -1.02311,1.99735 z m -1.37438,-2.39315 c -0.30722,-0.37939 -0.54245,-0.46618 -0.97166,-0.35845 -1.19789,0.30065 -0.90244,1.47405 0.37115,1.47405 1.09735,0 1.25967,-0.30156 0.60051,-1.1156 z m -0.31403,69.24852 c -1.06685,-0.0772 -1.20462,-0.37765 -0.95043,-2.07272 0.13321,-0.88833 0.1808,-0.93928 0.87712,-0.93928 0.72109,0 0.73909,0.0235 0.87323,1.13994 0.23873,1.98699 0.25522,1.9484 -0.79992,1.87206 z m 0.76843,-59.94301 c -0.12067,0.77172 -0.36876,0.96426 -1.02892,0.79857 -0.53857,-0.13517 -0.56957,-0.22104 -0.56957,-1.57751 v -1.43455 h 0.67099 c 0.36905,0 0.71479,0.12451 0.76833,0.27669 0.17546,0.49881 0.24731,1.3731 0.15917,1.9368 z m -0.0428,-19.70007 c -0.10306,0.68319 -0.20185,0.78292 -0.83625,0.84408 l -0.71938,0.0694 v -1.42569 c 0,-1.03078 0.0971,-1.50629 0.35058,-1.71665 0.78296,-0.6498 1.45248,0.58855 1.20505,2.22889 z m -0.13497,-12.529906 c -0.19257,0.0739 -0.591,0.13436 -0.88539,0.13436 -0.51855,0 -0.53527,-0.0519 -0.53527,-1.66012 0,-1.60825 0.0168,-1.66012 0.53527,-1.66012 1.10264,0 1.23552,0.17854 1.23552,1.66012 0,1.06459 -0.0822,1.42296 -0.35013,1.52576 z m -0.32205,-4.73532 c -0.36075,0 -0.73062,0.0249 -0.82193,0.0553 -0.0913,0.0304 -0.19884,-0.61701 -0.23897,-1.43877 l -0.073,-1.49411 h 0.87037 0.87036 l 0.0245,1.43877 0.0245,1.43877 z m -0.2997,92.523936 h -0.79891 v -1.6559 c 0,-1.58977 0.0225,-1.66156 0.56368,-1.79738 0.31002,-0.0778 0.63215,-0.073 0.71583,0.0107 0.0837,0.0837 0.18955,0.8925 0.23524,1.79737 l 0.0831,1.64522 z m 0.18586,-3.97999 c -0.31858,0.12112 -0.67047,0.16383 -0.782,0.0949 -0.25493,-0.15756 -0.26236,-4.7535 -0.008,-5.15426 0.10321,-0.16283 0.42541,-0.26243 0.716,-0.22134 0.51681,0.0731 0.5297,0.12906 0.59094,2.56759 l 0.0626,2.49289 z m 0.25458,-6.73324 c -0.86992,0.33383 -1.12642,0.0215 -1.19584,-1.45637 -0.0957,-2.03782 0.052,-2.48366 0.79427,-2.39807 0.59365,0.0684 0.60177,0.0916 0.66533,1.89892 0.0511,1.45465 -0.003,1.85542 -0.26376,1.95552 z m -0.45493,-4.78121 h -0.78442 v -1.67414 -1.67415 l 0.71938,0.0694 0.71939,0.0694 0.065,1.60479 0.065,1.60478 z m 0.48833,-4.42396 c -0.15217,0.002 -0.5008,0.0631 -0.77472,0.13649 -0.48457,0.12986 -0.49803,0.0879 -0.49803,-1.55247 v -1.68593 h 0.77472 0.77472 v 1.54944 c 0,1.09038 -0.082,1.55034 -0.27669,1.55247 z m -0.0423,-10.72543 c -0.54294,0.73117 -1.10675,0.162 -1.18661,-1.19791 -0.0663,-1.12875 -0.0609,-1.13928 0.58502,-1.13928 0.39029,0 0.70586,0.14051 0.7863,0.35013 0.23309,0.60741 0.14627,1.54134 -0.18471,1.98706 z m 0.16648,-3.60995 c -0.0557,0.21305 -0.16863,0.38872 -0.25101,0.39038 -0.0824,0.002 -0.3739,0.0631 -0.64782,0.13649 -0.48922,0.13111 -0.49803,0.0986 -0.49803,-1.84004 v -1.97351 l 0.77472,0.0904 0.77472,0.0904 -0.0257,1.35922 c -0.0141,0.74757 -0.0712,1.53353 -0.1269,1.74658 z m -0.1241,-5.14335 c -0.15218,0.002 -0.50081,0.0631 -0.77473,0.13649 -0.48837,0.13088 -0.49803,0.0964 -0.49803,-1.78076 0,-2.05885 0.18959,-2.39118 1.08945,-1.90959 0.40269,0.21551 0.45999,0.45201 0.45999,1.89851 0,1.17268 -0.0803,1.65321 -0.27668,1.65535 z m 0.10566,-4.99682 c -0.23949,0.23951 -1.15735,0.12121 -1.1838,-0.15257 -0.0917,-0.9492 -0.10774,-4.56829 -0.0221,-4.99245 0.0809,-0.40072 0.22769,-0.49566 0.68462,-0.44269 l 0.58168,0.0674 0.0319,2.69808 c 0.0176,1.48395 -0.024,2.75394 -0.0922,2.8222 z m -0.53687,-6.77816 c -0.65226,-0.0627 -0.73858,-0.15089 -0.80252,-0.82023 -0.12495,-1.30802 0.11413,-1.83306 0.79875,-1.75412 0.56788,0.0655 0.60467,0.14023 0.66781,1.35693 l 0.0668,1.28764 z m 0.5613,-18.38686 c -0.1601,0.39676 -1.10915,0.34181 -1.2685,-0.0734 -0.0739,-0.19257 -0.13435,-1.03109 -0.13435,-1.86336 0,-1.76685 0.12984,-2.21349 0.64346,-2.21349 0.70993,0 0.90644,0.48711 0.88851,2.20242 -0.01,0.91915 -0.0677,1.7957 -0.12912,1.94787 z m -0.49874,-8.76512 c -0.61988,0.35263 -0.64706,0.34872 -0.77031,-0.11068 -0.0703,-0.26191 -0.12911,-1.20148 -0.13078,-2.08793 -0.003,-1.741236 0.21965,-2.070976 1.08643,-1.607086 0.40073,0.21447 0.45981,0.45191 0.45859,1.843176 -0.001,1.53042 -0.0282,1.61222 -0.64393,1.96252 z m 0.49777,-4.829396 c -0.28179,0.28178 -1.13392,0.1456 -1.26753,-0.20257 -0.0739,-0.19257 -0.13435,-0.928 -0.13435,-1.63429 0,-1.11772 0.0602,-1.29991 0.46405,-1.40553 0.90731,-0.23727 1.08539,0.0262 1.08539,1.60595 0,0.81888 -0.0664,1.55528 -0.14756,1.63644 z m -8.57729,57.034286 c -1.49399,0 -1.67745,-0.12736 -1.50241,-1.04305 0.0888,-0.46463 0.21334,-0.5064 1.50977,-0.5064 h 1.41297 v 0.77473 0.77472 z m -0.47516,-37.62935 h -1.4528 l 0.0694,-0.71939 c 0.0694,-0.71935 0.0694,-0.71938 1.45279,-0.78529 l 1.38343,-0.0659 v 0.78528 0.78529 z m -4.24695,-0.0452 c -1.302,-0.057 -1.50139,-0.12237 -1.55072,-0.50815 -0.093,-0.72753 0.20809,-0.92138 1.66139,-1.06957 l 1.38344,-0.14106 v 0.89211 0.89212 z m 1.08704,37.56516 c -0.0602,0.0602 -0.64697,0.10942 -1.30397,0.10942 h -1.19456 l 0.0694,-0.71939 c 0.0674,-0.69907 0.10143,-0.72125 1.20476,-0.78536 1.11458,-0.0648 1.13722,-0.0536 1.23461,0.60997 0.0546,0.37177 0.0499,0.72519 -0.0102,0.78536 z m -4.16748,-0.0381 c -0.20857,0.20856 -2.11895,0.17736 -2.46187,-0.0402 -0.21277,-0.135 -0.22822,-0.33102 -0.0608,-0.77134 0.20108,-0.52889 0.33755,-0.59034 1.31086,-0.59034 0.93953,0 1.10445,0.0673 1.21988,0.49803 0.17117,0.63874 0.1704,0.72539 -0.008,0.90385 z m -1.05584,-37.4818 H 110.465 v -0.78629 -0.78629 l 1.16208,0.0669 c 1.13323,0.0652 1.1638,0.0848 1.23144,0.78629 l 0.0694,0.71938 z m -3.12732,37.41349 c -1.38491,0.52654 -2.42683,0.106 -2.07004,-0.83554 0.15179,-0.40058 0.35982,-0.49803 1.06314,-0.49803 0.48094,0 1.03199,0.0605 1.22456,0.13435 0.55431,0.21271 0.4192,0.95708 -0.21766,1.19922 z m 0.22369,-37.62482 c -0.18926,0.15707 -0.762,0.29378 -1.27276,0.3038 -0.9171,0.018 -0.92952,0.008 -0.99736,-0.81185 l -0.0687,-0.83006 h 0.99133 c 0.54523,0 1.14889,0.0605 1.34146,0.13436 0.44792,0.17188 0.45124,0.83426 0.006,1.20375 z m -5.41098,37.61934 h -1.3281 v -0.66405 -0.66404 h 1.32809 1.32809 v 0.66404 0.66405 z m 1.02696,-37.62936 c -0.16562,0 -0.76326,0.0633 -1.32809,0.14077 l -1.02697,0.14076 v -0.80481 -0.80481 h 1.3281 1.32809 v 0.66405 c 0,0.41242 -0.11411,0.66404 -0.30113,0.66404 z m -3.82055,37.69298 c -0.18605,0.18605 -1.767406,0.20486 -2.422887,0.0288 -0.363749,-0.0977 -0.437663,-0.2578 -0.360788,-0.78157 0.09646,-0.65721 0.09976,-0.65856 1.453536,-0.5935 1.267709,0.0609 1.361169,0.10211 1.422369,0.62687 0.036,0.30891 -0.006,0.63263 -0.0922,0.71938 z M 99.272827,117.6534 h -1.231445 l 0.06936,-0.71939 c 0.06764,-0.70153 0.09821,-0.72104 1.231445,-0.78629 l 1.162083,-0.0669 v 0.78629 0.78629 z m -3.235352,-0.32874 c -0.160714,0.0616 -0.84005,0.13585 -1.509629,0.16502 -1.216914,0.053 -1.217422,0.0528 -1.217422,-0.611 v -0.66405 h 1.438772 c 1.324376,0 1.4444,0.0396 1.50963,0.49902 0.03896,0.27447 -0.06061,0.54942 -0.221351,0.61101 z m -0.443523,37.75659 c -0.03852,0.0109 -0.599882,0.0687 -1.247464,0.12838 l -1.177428,0.10853 0.07068,-0.73709 c 0.06977,-0.72752 0.08506,-0.73709 1.177428,-0.73709 1.04281,0 1.110794,0.0351 1.176782,0.60871 0.03852,0.33479 0.03852,0.61764 0,0.62856 z m -4.924714,-36.59939 c -0.708438,0.70761 -1.432379,1.21465 -1.854883,1.29915 -0.601024,0.12021 -0.662803,0.19495 -0.46564,0.56336 0.125031,0.23361 0.19688,0.84071 0.159673,1.34909 -0.06224,0.85031 -0.126582,0.93631 -0.803427,1.07368 -0.911761,0.18507 -1.033103,-0.0587 -0.841361,-1.69016 0.136494,-1.16133 0.120927,-1.20782 -0.514456,-1.53639 -0.360368,-0.18635 -0.975215,-0.73703 -1.366334,-1.22372 -0.606477,-0.75468 -0.835966,-0.8849 -1.559474,-0.8849 -0.756267,0 -0.848351,-0.0598 -0.848351,-0.55076 0,-0.47184 0.127497,-0.57114 0.889756,-0.69304 0.677372,-0.10831 1.049643,-0.34415 1.559606,-0.98803 0.368418,-0.46516 0.989,-0.96112 1.379071,-1.10211 l 0.709221,-0.25636 -0.0544,-3.24054 c -0.02993,-1.7823 -0.07973,-3.85429 -0.110676,-4.60443 -0.03093,-0.75014 -0.0065,-1.40847 0.0544,-1.46297 0.06086,-0.0545 0.388653,-0.16582 0.728396,-0.24737 l 0.617721,-0.14829 0.01939,2.16462 c 0.02893,3.22832 -0.04888,6.7688 -0.15698,7.14499 -0.06468,0.22509 0.226006,0.46452 0.90255,0.74341 0.548877,0.22626 1.098238,0.59876 1.220803,0.82777 0.12256,0.22901 0.51871,0.56938 0.880327,0.75638 1.01827,0.52657 0.862362,1.30098 -0.544925,2.70662 z m -2.225616,-2.28455 c -0.529683,-0.52968 -0.576215,-0.53718 -1.231143,-0.19851 -1.292528,0.66839 -0.315355,1.95104 1.197174,1.57142 0.7327,-0.18389 0.74454,-0.66234 0.03394,-1.37291 z m 2.772943,39.19604 c -0.258476,0.62081 -1.330788,1.58776 -2.070855,1.86738 -1.508657,0.57001 -2.966968,0.14478 -4.062822,-1.18468 -0.497559,-0.60363 -0.86373,-0.80435 -1.733264,-0.95013 -0.810925,-0.13595 -1.123393,-0.29361 -1.18167,-0.59622 -0.102481,-0.53215 0.321786,-0.78886 1.310716,-0.79308 0.660959,-0.003 0.915043,-0.15524 1.525812,-0.91526 0.403034,-0.50153 1.170727,-1.10558 1.705977,-1.34235 1.173356,-0.51903 2.09286,-0.30761 3.310012,0.76106 1.243002,1.09137 1.629905,2.11136 1.196094,3.15328 z m -2.665153,-1.43878 c -0.575959,-0.57595 -1.219072,-0.56251 -1.63704,0.0342 -0.240443,0.34328 -0.272788,0.59139 -0.115437,0.8854 0.371003,0.69322 2.195171,0.44406 2.195171,-0.29984 0,-0.0974 -0.199214,-0.3763 -0.442694,-0.61978 z m 0.0063,16.51048 c -0.148084,0.36618 -0.330263,0.44166 -0.873537,0.36192 -0.799618,-0.11736 -0.965289,-0.53395 -0.861898,-2.16735 0.06833,-1.07957 0.07827,-1.09284 0.867526,-1.15889 0.795866,-0.0666 0.798852,-0.0635 0.940737,0.97163 0.171788,1.25334 0.166386,1.40116 -0.07283,1.99269 z m 0.03727,-77.325236 c -0.06664,0.3382 -0.681883,0.59897 -1.426913,0.60478 -0.331693,0.003 -0.387361,-0.21595 -0.387361,-1.52062 0,-1.47766 0.01795,-1.52707 0.594682,-1.63732 0.327069,-0.0625 0.716368,-0.067 0.865104,-0.01 0.257071,0.0987 0.497515,1.83715 0.354488,2.56307 z M 87.832051,186.1094 c -0.395661,0.0602 -0.79409,0.0656 -0.885396,0.012 -0.09131,-0.0536 -0.166009,-0.78875 -0.166009,-1.63376 v -1.53638 h 0.885396 0.885396 v 1.52432 1.52432 z m 0.0044,-4.57347 -0.723634,-0.0359 -0.167629,-3.2033 c -0.0922,-1.76181 -0.141997,-3.90055 -0.110675,-4.75274 l 0.05697,-1.54944 h 0.77472 0.774721 l 0.05961,4.78865 0.05961,4.78866 z m 0.399212,-15.49338 c -0.173758,0.0667 -0.54729,0.0885 -0.830061,0.0484 -0.436339,-0.0618 -0.524708,-0.22087 -0.584033,-1.05116 -0.11589,-1.62201 0.06928,-2.00989 0.959516,-2.00989 h 0.770504 v 1.44571 c 0,1.04815 -0.08688,1.47905 -0.315926,1.56695 z m 0.122503,-4.37837 c -0.106007,0.16722 -0.463137,0.26285 -0.826667,0.22135 -0.608567,-0.0695 -0.643396,-0.13233 -0.708443,-1.27865 -0.106083,-1.86936 0.04718,-2.22532 0.958029,-2.22532 h 0.770504 l -0.0031,1.49411 c -0.0019,0.82175 -0.08738,1.62659 -0.190035,1.78851 z m -0.03664,-11.52297 c -0.226608,0.56422 -0.811752,0.87484 -1.088582,0.57786 -0.20562,-0.22059 -0.455457,-5.89 -0.287809,-6.53109 0.07926,-0.30312 0.311163,-0.41547 0.857549,-0.41547 h 0.748908 l -0.01405,2.93288 c -0.0077,1.61308 -0.104934,3.1592 -0.216036,3.43582 z m -0.204271,-7.81012 c -0.248086,0.0787 -0.650273,0.0799 -0.89376,0.003 -0.392506,-0.12458 -0.442312,-0.3333 -0.439307,-1.84105 0.0038,-1.99544 0.150644,-2.31516 1.016696,-2.2163 l 0.640033,0.0731 0.0637,1.91923 c 0.0586,1.76589 0.02767,1.93068 -0.38736,2.0624 z m 0.10206,-5.05765 c -0.16825,0.0646 -0.486045,0.0825 -0.706203,0.0399 -0.336362,-0.0651 -0.405858,-0.32439 -0.435135,-1.62351 -0.01914,-0.85031 -0.06199,-1.89464 -0.09511,-2.32073 -0.132831,-1.70754 -0.01437,-2.21372 0.517317,-2.21011 0.967987,0.007 1.030568,0.19959 1.027738,3.16943 -0.0019,2.2001 -0.07058,2.85367 -0.308603,2.94501 z m -0.08176,-6.78187 c -0.983083,0 -1.135415,-0.21294 -1.135415,-1.58715 v -1.31844 l 0.719386,0.0694 c 0.719349,0.0694 0.719387,0.0694 0.785287,1.4528 0.05954,1.25021 0.02397,1.38343 -0.369258,1.38343 z m -0.084,-3.7818 c -0.273918,0.10353 -0.565473,0.14874 -0.647901,0.10046 -0.331354,-0.19406 -0.660036,-1.70613 -0.526082,-2.42019 0.122703,-0.65406 0.230411,-0.7603 0.770836,-0.7603 0.712899,0 0.893208,0.39024 0.898159,1.94394 0.0025,0.78111 -0.08459,0.98098 -0.495012,1.13609 z m 0.339493,-24.2742 c -0.07895,0.52112 -0.196341,0.60871 -0.815907,0.60871 h -0.723696 l -0.04643,-1.28707 c -0.06074,-1.68271 0.23996,-2.475866 0.938578,-2.475866 0.746598,0 0.964492,1.061506 0.647474,3.154226 z m 0.0063,-4.426986 c -0.126506,0.48409 -0.80795,0.50196 -1.276439,0.0334 -0.255264,-0.25526 -0.342975,-0.71795 -0.314702,-1.66012 l 0.03921,-1.30622 h 0.852261 0.852266 l -0.02566,1.27276 c -0.01412,0.70001 -0.07123,1.44707 -0.126907,1.66011 z m -0.597141,-8.95357 h -0.749716 l -0.104746,-1.3613 c -0.0576,-0.74871 -0.0812,-1.39046 -0.05239,-1.4261 0.0288,-0.0356 0.41328,-0.12338 0.854463,-0.19497 l 0.802146,-0.13017 v 1.55627 1.55627 z m -8.447292,66.044156 -1.670685,0.0728 0.06591,-0.77472 c 0.05741,-0.67459 0.150054,-0.78431 0.716933,-0.84885 0.358067,-0.0408 1.08022,-0.01 1.604784,0.0689 0.868418,0.13022 0.95375,0.19966 0.95375,0.77602 v 0.633 z m 0.217894,-37.44585 h -1.452853 l 0.06936,-0.71939 c 0.06936,-0.71935 0.06943,-0.71938 1.452798,-0.78529 l 1.383431,-0.0659 v 0.78528 0.78529 z m -4.492739,0 c -0.469976,0 -1.307188,-0.0621 -1.860469,-0.13788 -0.996585,-0.13661 -1.003896,-0.14383 -0.783963,-0.77473 0.217598,-0.6242 0.254516,-0.63684 1.860469,-0.63684 h 1.638464 v 0.77473 c 0,0.7516 -0.02548,0.77472 -0.854501,0.77472 z m 0.495746,37.25027 c -0.08675,0.0867 -0.937983,0.15773 -1.891627,0.15773 -1.706462,0 -1.733902,-0.009 -1.733902,-0.55885 0,-0.72672 0.781049,-1.03177 2.419803,-0.9451 1.134429,0.06 1.237669,0.10985 1.297954,0.62684 0.03601,0.30891 -0.0056,0.63263 -0.09223,0.71938 z m -6.686545,0.24406 c -0.541781,0.0743 -1.6186,0.13502 -2.392932,0.13502 h -1.407875 v -0.77472 -0.77473 h 2.299043 2.299043 l 0.09389,0.63971 c 0.08928,0.6083 0.04553,0.64633 -0.891168,0.77472 z m 0.921308,-37.6419 c -0.183553,0.18355 -1.810781,0.18768 -3.302904,0.008 -1.029332,-0.12369 -1.117884,-0.17939 -1.028503,-0.64696 0.08609,-0.45034 0.266888,-0.52972 1.509755,-0.66282 1.991327,-0.21325 2.969218,-4e-5 2.969218,0.64739 0,0.27855 -0.0664,0.57286 -0.147566,0.65402 z m -6.534883,37.77449 c -0.403011,-0.001 -1.111548,-0.065 -1.574529,-0.14154 -0.784394,-0.12963 -0.837209,-0.18605 -0.774721,-0.82763 l 0.06706,-0.68852 h 1.43877 1.438769 l 0.0687,0.83006 c 0.06673,0.80626 0.04769,0.82999 -0.664047,0.82763 z m 0.558457,-37.77449 c -0.08116,0.0812 -0.790029,0.14757 -1.57526,0.14757 -1.372553,0 -1.42254,-0.0193 -1.294227,-0.49804 0.07341,-0.27392 0.134829,-0.62254 0.136491,-0.77472 0.0021,-0.19266 0.439955,-0.27669 1.441792,-0.27669 1.432259,0 1.43877,0.003 1.43877,0.62716 0,0.34494 -0.0664,0.69356 -0.147566,0.77472 z M 59.0567,117.31078 c -0.152177,0.0474 -0.755139,0.1323 -1.339915,0.18855 l -1.063228,0.10227 0.06716,-0.8042 c 0.03694,-0.44231 0.141863,-0.7793 0.233169,-0.74886 0.09131,0.0304 0.664048,0.0553 1.272759,0.0553 1.036621,0 1.106745,0.0355 1.106745,0.56032 0,0.30817 -0.124509,0.59914 -0.276687,0.64659 z m -0.442698,37.61103 c -0.273919,0.0734 -0.932983,0.13482 -1.464586,0.13649 -0.894893,0.003 -0.956655,-0.0339 -0.833081,-0.49502 0.07341,-0.27391 0.134828,-0.63641 0.13649,-0.80555 0.0023,-0.23892 0.251062,-0.27814 1.115042,-0.17582 0.611611,0.0724 1.209253,0.1918 1.328095,0.26525 0.404606,0.25006 0.223819,0.93911 -0.28196,1.07465 z m -3.973217,0.0952 c -0.14609,0.14609 -0.690425,0.26562 -1.209632,0.26562 -1.042735,0 -1.476222,-0.44419 -1.255859,-1.28685 0.151773,-0.58039 1.406422,-0.87566 2.194677,-0.5165 0.584319,0.26623 0.72777,1.08078 0.270814,1.53773 z m 0.118053,-37.5113 c -0.08116,0.0812 -0.572082,0.14757 -1.090935,0.14757 -1.143666,0 -1.702221,-0.45348 -1.43918,-1.16842 0.153051,-0.416 0.373115,-0.50192 1.429292,-0.55808 l 1.248389,-0.0664 v 0.74888 c 0,0.41188 -0.0664,0.81528 -0.147566,0.89644 z M 81.006059,69.543194 c -0.41535,0.0183 -1.145303,0.0432 -1.622131,0.0553 -1.300899,0.033 -0.883742,0.17123 0.935523,0.31 1.189808,0.0907 1.594693,0.0543 1.529896,-0.13764 -0.04844,-0.14357 -0.427943,-0.24604 -0.843288,-0.2277 z m -13.052117,0.0137 c -3.369155,-0.0934 -4.495307,0.13152 -1.426708,0.28494 2.148752,0.10744 4.429777,0.0397 4.263456,-0.12663 -0.04507,-0.0451 -1.321606,-0.11631 -2.836748,-0.15831 z"
       id="path1"
       sodipodi:nodetypes="ccssssscccssssssccssscssscssssssssssscsccssscscssssssssscsscsssscscscscscssscccssscccssccssscssccssssccccccccsscccssscccssccsscccccsccsccsccsscccssscccsssccccsscsscsssscccccsssssscccssscsssssscscssssscscccsscsssscssscccsssssssssccsssssssssssssscscssccsscsscsssscsssscssssssssssssssssssscssssssssssssssssssssssscssssscsssssssssssscccccsccssssccssssscscssscccccccccccsscccscsssssscsscccssscsssscssssccsssssscssssssssscscsssssssssscccsccssccccssscccscscssscccssssccccccssccsssssccscsccccccccccccsscccccsssssssssccsscccccsscsscsscssssssssssssssssscsscscssssssscssccssssssssssssssssssssssscscssscssccccccccscccccccsssscssscssscccccssscccccccscsccssccscssscssssssssssscssssssscccsssccssscccccccsssccccssccccsssscsscsssscsscccccssssssssscsscccscssscssssscssssssscscsssssssssssscssscssssssss" /><path
       d="m 70.94182,110.52186 c -0.356998,-0.23534 -1.452676,-1.21772 -2.434837,-2.18307 -1.478195,-1.4529 -1.865342,-1.72557 -2.247889,-1.58322 -0.254173,0.0946 -1.015522,0.24112 -1.691885,0.32563 -2.595381,0.32427 -5.218791,-1.17438 -6.288016,-3.5921 l -0.517016,-1.16905 h -1.291454 c -1.818905,0 -3.195416,-0.53196 -4.341057,-1.6776 -1.608848,-1.608846 -2.012503,-3.715376 -1.430641,-7.465996 0.2773,-1.78744 1.73366,-4.95508 2.988057,-6.49913 1.133199,-1.39487 3.989229,-3.59629 5.729627,-4.41639 2.737191,-1.2898 5.145757,-1.85446 7.910267,-1.85446 2.300193,0 2.57504,0.0506 4.872692,0.89602 2.850119,1.04875 4.518555,2.11521 6.177982,3.94894 1.202582,1.3289 3.244826,4.76952 3.693482,6.2225 0.499234,1.6168 0.918901,4.14896 0.919077,5.54544 2.51e-4,1.98742 -1.25173,4.659426 -2.672884,5.704566 -0.525656,0.38656 -1.077401,0.70285 -1.226112,0.70285 -0.148711,0 -1.000651,0.35172 -1.8932,0.78159 -1.312223,0.632 -1.781684,0.75537 -2.452876,0.64459 -0.778661,-0.12851 -0.830062,-0.10191 -0.830062,0.42954 0,0.31159 0.164981,1.31735 0.366617,2.235 0.434105,1.97558 0.278543,2.51955 -0.877389,3.06807 -1.008702,0.47867 -1.665475,0.46167 -2.462483,-0.0637 z m 0.530807,-4.07639 c -0.256795,-0.68634 -0.504856,-1.24789 -0.551249,-1.24789 -0.241667,0 -1.211932,0.53547 -1.211932,0.66885 0,0.32052 2.051029,2.30879 2.138589,2.07314 0.05032,-0.13542 -0.118619,-0.80777 -0.375408,-1.4941 z m -3.887821,-2.61852 c 0.840195,-0.36682 2.583316,-0.89937 3.87361,-1.18344 6.088959,-1.34058 7.106476,-1.59849 7.460638,-1.89105 0.488568,-0.40358 1.370858,-2.393786 1.54557,-3.486376 0.213665,-1.33619 -0.495049,-4.42837 -1.227755,-5.35681 -0.339468,-0.43014 -0.690348,-1.12739 -0.779741,-1.54945 -0.385559,-1.82031 -2.271293,-4.31808 -4.235903,-5.61068 l -0.911272,-0.59957 -0.817255,0.4822 c -1.015195,0.59898 -1.781182,0.35139 -2.000374,-0.64658 -0.178772,-0.81394 -0.68024,-1.27062 -1.612939,-1.46885 -0.815203,-0.17326 -0.911391,0.0723 -0.38736,0.98902 0.173984,0.30436 0.319866,0.81841 0.324182,1.14234 0.0064,0.48201 -0.172754,0.67639 -0.986684,1.07041 -0.546989,0.26479 -1.20454,0.77638 -1.461222,1.13686 -0.562581,0.79006 -0.805209,2.27551 -0.442965,2.71198 0.14184,0.17091 0.445474,1.27928 0.674737,2.46306 0.229263,1.18377 0.506889,2.24236 0.616949,2.35242 0.254179,0.25418 2.792739,-0.26862 3.767483,-0.77588 0.396929,-0.20657 1.083381,-0.92032 1.525448,-1.58612 0.871906,-1.31319 1.346475,-1.49055 2.065202,-0.77181 0.364754,0.36474 0.399771,0.54203 0.207704,1.0514 -0.348026,0.92297 -1.212509,2.33851 -1.674899,2.74253 -0.663763,0.57998 -2.738904,1.24779 -5.72213,1.84148 -3.172563,0.63138 -4.550178,1.16745 -5.608498,2.18245 -0.969738,0.93003 -1.364552,1.719086 -1.364552,2.727136 0,0.68565 0.164768,0.98153 0.983334,1.76585 0.540828,0.51821 1.262981,0.98831 1.604776,1.04465 1.205914,0.1988 3.073828,-0.11789 4.583916,-0.77717 z m -3.830058,-0.90146 c -0.763803,-0.39282 -1.070643,-0.95751 -0.78001,-1.43551 0.129536,-0.21305 0.962201,-0.77168 1.850364,-1.2414 1.588017,-0.839846 3.130726,-1.251676 7.203662,-1.922996 1.644933,-0.27112 1.835846,-0.36097 2.786069,-1.3112 0.604871,-0.60487 1.185253,-1.4671 1.425791,-2.1182 0.475692,-1.28764 0.9217,-1.8728 1.427428,-1.8728 2.095602,0 0.02409,5.30033 -2.548644,6.52117 -0.439701,0.20866 -1.911521,0.572616 -3.270721,0.808806 -3.264045,0.56722 -5.119737,1.17802 -6.372182,2.0974 -1.181526,0.86733 -1.036272,0.82728 -1.721757,0.47473 z m 4.765556,-11.347006 c -0.07643,-0.19916 -0.138955,-0.7023 -0.138955,-1.11808 0,-1.45411 2.71749,-3.62886 4.537655,-3.6314 1.799153,-0.003 3.652265,1.18026 3.652265,2.33111 0,0.77828 -0.276509,0.81352 -1.642623,0.20935 -2.115084,-0.93539 -3.109995,-0.62939 -4.405577,1.35499 -0.757836,1.16074 -1.726557,1.57383 -2.002765,0.85403 z m -9.634427,7.27789 c 0.389324,-0.56586 1.008381,-1.29735 1.375682,-1.62554 0.713595,-0.63759 0.709642,-1.23202 -0.0098,-1.46946 -1.549159,-0.51131 -2.659344,-1.24228 -3.165065,-2.08396 -0.878369,-1.46187 -1.486935,-2.12629 -2.229192,-2.43374 -0.641313,-0.26564 -0.724757,-0.24762 -1.08894,0.23519 -0.558684,0.74067 -0.904213,2.03291 -1.029394,3.84988 -0.09233,1.34013 -0.03313,1.71301 0.407194,2.5634 0.706121,1.36385 1.84781,1.98462 3.658834,1.98942 l 1.372796,0.004 z m -3.124878,-0.70912 c -1.146231,-0.60911 -1.831353,-1.72429 -1.651326,-2.6879 0.07972,-0.42672 0.251826,-0.90517 0.38246,-1.06323 0.419668,-0.50776 1.089498,-0.20642 1.35524,0.60969 0.224482,0.68942 1.172886,1.59106 2.469102,2.34737 0.364195,0.2125 0.327898,0.28094 -0.381506,0.71939 -0.954421,0.58986 -1.189312,0.59793 -2.17397,0.0747 z m 9.023426,-3.13162 c 0.348634,-6.3e-4 -0.492489,-5.22848 -1.032946,-6.42002 -0.248287,-0.54741 -0.453625,-1.22212 -0.456298,-1.49937 -0.0056,-0.57921 1.809687,-2.41201 2.595991,-2.62107 0.671775,-0.17859 0.626624,-0.54244 -0.16094,-1.29697 -0.628915,-0.60254 -0.700206,-0.61899 -1.562593,-0.36061 -0.496988,0.1489 -1.068874,0.46374 -1.270868,0.69964 -0.201987,0.23591 -0.719003,0.48754 -1.148929,0.55919 -1.398014,0.23298 -2.219479,0.56297 -2.443502,0.98156 -0.304946,0.56979 -0.279101,0.66087 0.187518,0.66087 0.477079,0 0.920922,0.85509 0.920922,1.7742 0,0.50889 0.209793,0.80133 0.985016,1.37301 1.120506,0.82633 1.57314,1.74252 1.202758,2.43458 -0.198097,0.37015 -0.391608,0.42665 -1.124604,0.32833 -1.126442,-0.15109 -1.795808,-0.78649 -2.644398,-2.51022 -0.561156,-1.13988 -0.650731,-1.52876 -0.524382,-2.27662 0.09287,-0.54965 0.06689,-0.90192 -0.06649,-0.90192 -0.430692,0 -2.84195,1.97914 -3.09924,2.54384 -0.448963,0.98536 -0.348308,1.27314 0.388678,1.11127 0.949577,-0.20856 1.464083,0.17121 2.570553,1.89742 0.613536,0.95718 1.218558,1.63282 1.594976,1.78113 1.912306,0.75347 2.090563,0.881 2.426341,1.7358 l 0.340754,0.86747 1.133174,-0.4307 c 0.623243,-0.23688 1.158078,-0.43075 1.188509,-0.43081 z"
       style="fill:#000000;stroke-width:0.627446"
       id="path1-0" /><path
       d="m 68.392134,189.49241 c -5.762669,-1.02621 -12.210866,-5.32607 -14.381498,-9.59003 -1.793562,-3.52327 -1.457188,-9.60472 0.749654,-13.55318 1.201121,-2.14904 3.424251,-3.89729 5.346853,-4.20473 l 0.896559,-0.14337 0.06449,-1.57795 0.0645,-1.57795 2.766863,-0.13442 c 2.798549,-0.13595 3.610998,-0.0284 3.814761,0.50482 0.06168,0.1615 0.01136,0.91865 -0.111899,1.68255 -0.123262,0.7639 -0.182348,1.43067 -0.131312,1.48171 0.05101,0.051 0.650888,0.0171 1.333004,-0.0755 1.652995,-0.22431 2.111702,-0.0144 2.655547,1.21501 0.412201,0.93185 0.42987,1.15459 0.189019,2.38253 -0.403141,2.05535 -0.743022,2.49582 -2.060729,2.67062 l -1.10642,0.14678 0.775066,0.81803 c 1.063471,1.12242 3.618866,4.32148 4.24539,5.31472 0.282991,0.44863 0.900455,1.66235 1.372144,2.69716 l 0.857612,1.88147 0.005,3.09888 c 0.0044,2.69276 -0.05603,3.22944 -0.460521,4.09496 -0.523629,1.12042 -1.418261,2.08885 -2.397422,2.59519 -0.808735,0.41822 -2.941569,0.54785 -4.486656,0.27271 z m 4.144603,-3.09414 c 1.516212,-1.62311 1.423494,-5.80531 -0.199917,-9.01736 -0.353164,-0.69877 -1.407657,-2.11714 -2.343317,-3.15195 -0.935661,-1.03481 -1.95875,-2.25952 -2.273527,-2.72157 -0.414629,-0.60864 -0.622433,-0.76111 -0.754216,-0.55338 -0.327765,0.51668 -0.200846,1.00084 0.715998,2.73133 1.041053,1.96491 1.042935,2.62893 0.01098,3.86506 l -0.630671,0.75544 -0.605881,-0.39699 c -1.017285,-0.66655 -1.450932,-1.9937 -1.391156,-4.25755 0.04919,-1.86274 0.01355,-2.03432 -0.667427,-3.21222 -0.395661,-0.6844 -0.719386,-1.54889 -0.719386,-1.9211 0,-0.73715 0.211123,-0.83269 3.984285,-1.80297 l 1.438772,-0.36998 0.06746,-1.03839 c 0.07785,-1.19819 0.05208,-1.20804 -1.859387,-0.71016 -0.693084,0.18052 -1.491189,0.27023 -1.773578,0.19936 -0.484018,-0.12148 -0.51706,-0.24487 -0.57678,-2.15436 l -0.06335,-2.02549 h -0.664046 -0.664051 l -0.110676,1.77074 -0.110669,1.77072 -1.266839,0.15738 c -3.25693,0.40458 -5.03042,2.01728 -6.277689,5.7085 -0.310912,0.92011 -0.411015,1.86608 -0.409904,3.87361 0.0019,3.07766 0.40501,4.43209 1.872576,6.2887 0.903999,1.14364 3.993495,3.82642 5.30713,4.60845 2.225665,1.325 5.3542,2.22685 7.824426,2.25552 1.411955,0.0164 1.558846,-0.0283 2.140859,-0.65134 z"
       style="fill:#000000;stroke-width:0.627446"
       id="path1-06" /><path
       d="m 108.56289,188.11884 c -0.24349,-0.24348 -0.4427,-0.61173 -0.4427,-0.81833 0,-0.20661 -0.10053,-1.5264 -0.22339,-2.93288 -0.20259,-2.31912 -0.42698,-4.54274 -1.09947,-10.89556 -0.12462,-1.17729 -0.22795,-2.72121 -0.22961,-3.43091 -0.007,-2.8742 -0.25541,-2.51513 -1.45059,2.09445 -0.63699,2.45676 -1.3475,4.79195 -1.5789,5.18933 -1.05389,1.80982 -2.71809,1.46391 -3.978434,-0.82693 -0.401874,-0.73045 -0.767185,-1.4277 -0.811809,-1.54944 -0.04461,-0.12174 -0.277541,-0.0473 -0.517596,0.1654 -0.392926,0.34819 -0.765893,0.37026 -3.739932,0.22135 l -3.30348,-0.1654 -0.0669,-1.16208 -0.0669,-1.16208 h 2.84769 2.847697 l 0.636193,-0.66406 c 0.349914,-0.36522 0.771922,-0.66404 0.937807,-0.66404 0.745032,0 1.571341,0.73019 2.368144,2.09267 0.47218,0.80738 0.92718,1.38897 1.01111,1.29243 0.14705,-0.16916 1.3938,-4.5188 2.08058,-7.25871 0.1831,-0.73046 0.63933,-2.87201 1.01385,-4.75901 0.71711,-3.613 1.1043,-4.49136 2.02929,-4.60347 0.93402,-0.1132 1.27498,0.54062 1.39215,2.66954 0.0579,1.0524 0.25318,3.28767 0.43393,4.96725 0.18074,1.67958 0.44776,4.19926 0.59338,5.5993 0.14562,1.40003 0.29516,2.79453 0.3323,3.09889 0.0372,0.30435 0.13349,1.58165 0.2141,2.83845 0.2278,3.55164 0.3368,3.70484 1.01575,1.42778 0.31848,-1.06814 0.75687,-2.58951 0.97419,-3.38084 0.52504,-1.91184 1.1793,-3.08311 1.8107,-3.24158 0.50862,-0.12766 0.67703,-0.10343 2.38605,0.34336 0.48697,0.12731 2.4471,0.23385 4.35584,0.23675 2.85487,0.004 3.53213,0.067 3.81827,0.35312 0.36491,0.36491 0.45941,1.34746 0.17293,1.79807 -0.18974,0.29846 -8.12237,0.45551 -9.16747,0.1815 -0.52935,-0.13879 -0.61658,-0.0837 -0.74951,0.47321 -0.0827,0.34666 -0.83344,2.92126 -1.66822,5.72132 -0.83478,2.80007 -1.51848,5.30172 -1.51932,5.55922 -0.004,1.3461 -1.72975,2.11989 -2.65771,1.19193 z"
       style="fill:#000000;stroke-width:0.627446"
       id="path1-9"
       sodipodi:nodetypes="ssssssssssscccccsssssssssssssssscsssssss" /><path
       d="m 146.45083,147.29234 c -5.76644,-5.25877 -8.9726,-8.52664 -9.77964,-9.9679 -0.4762,-0.8504 -0.82429,-1.9032 -1.03721,-3.13706 -0.28392,-1.64524 -0.2816,-2.02475 0.0203,-3.32672 0.75095,-3.23804 2.33818,-5.35392 5.04719,-6.72827 2.75948,-1.39995 6.22076,-1.18865 8.54272,0.52153 l 1.24932,0.92015 0.99607,-0.69963 c 3.39267,-2.38298 7.87276,-2.0381 11.00274,0.84702 1.50446,1.38677 2.22027,2.57995 2.74639,4.57799 0.42795,1.6252 0.44996,1.96969 0.21628,3.38464 -0.53358,3.23101 -2.14546,5.48211 -7.57357,10.57701 -4.69519,4.40699 -6.99795,6.40682 -7.37728,6.40682 -0.19356,0 -2.01757,-1.51901 -4.05336,-3.37558 z m 9.55487,-4.64833 c 2.82719,-2.70876 5.12361,-4.95211 5.10317,-4.98521 -0.0204,-0.0331 -1.64886,-0.10899 -3.61872,-0.16863 l -3.58155,-0.10843 -0.82213,1.36003 c -1.00071,1.65547 -1.99034,2.85084 -2.36019,2.85084 -0.55921,0 -0.9887,-0.8426 -1.80523,-3.54159 -0.46038,-1.52177 -0.933,-2.89542 -1.05027,-3.05254 -0.15786,-0.21152 -0.37812,0.0159 -0.84841,0.87586 -0.34935,0.63884 -0.75713,1.23901 -0.90617,1.3337 -0.14903,0.0947 -1.46626,0.1752 -2.92717,0.17893 -2.81673,0.007 -3.61325,0.1994 -2.945,0.71065 0.33367,0.25527 5.79035,5.28232 9.01464,8.30486 0.67918,0.6367 1.31854,1.15964 1.42079,1.16209 0.10225,0.003 2.49905,-2.2118 5.32624,-4.92056 z m -3.66794,-6.81552 c 0.52735,-0.84722 1.07519,-1.53896 1.21742,-1.53719 0.14224,0.002 0.67004,0.1466 1.17289,0.32182 0.62174,0.21666 2.00201,0.32892 4.31355,0.35083 l 3.39927,0.0323 0.26946,-0.63073 c 0.74621,-1.74665 0.089,-4.4041 -1.52625,-6.17144 -1.68027,-1.83848 -2.7921,-2.40956 -4.70262,-2.41545 -1.90818,-0.006 -2.78704,0.38385 -4.5534,2.01918 -0.69979,0.64789 -1.35864,1.17632 -1.46411,1.17431 -0.10547,-0.002 -0.78941,-0.54661 -1.51986,-1.2102 -1.63659,-1.48679 -2.46111,-1.89928 -4.09195,-2.04717 -1.7712,-0.1606 -3.17206,0.35157 -4.70948,1.72184 -0.92576,0.82512 -1.35841,1.41791 -1.69873,2.32751 -0.45709,1.22167 -0.59202,3.12774 -0.31828,4.49639 l 0.13834,0.69171 3.34791,-4.7e-4 3.34791,-4.8e-4 1.21742,-2.37903 c 1.78989,-3.49772 2.22081,-3.37329 3.64268,1.05189 0.95344,2.96733 1.25281,3.76359 1.41132,3.7539 0.0812,-0.005 0.57917,-0.70222 1.10651,-1.54944 z"
       style="fill:#000000;stroke-width:0.627446"
       id="path1-97" /><path
       d="m 102.39922,149.82059 c -0.87613,-0.28038 -1.68652,-1.08901 -1.68652,-1.68285 0,-0.46945 -0.1,-0.49715 -2.057965,-0.57013 -1.49803,-0.0558 -2.220729,-0.18349 -2.656189,-0.46917 l -0.598233,-0.39246 -0.02547,-10.23229 c -0.01399,-5.62777 -0.0063,-10.43151 0.01744,-10.675 0.02359,-0.24348 0.237815,-0.64191 0.475975,-0.8854 0.377729,-0.38618 0.714598,-0.44102 2.638721,-0.42953 l 2.205711,0.0132 v -0.70269 c 0,-0.97287 0.69598,-1.76298 1.92048,-2.18021 1.30355,-0.44416 2.04587,-0.44512 3.14813,-0.004 0.76899,0.30769 0.93285,0.31069 1.38791,0.0254 0.28379,-0.1779 1.03993,-0.38826 1.68031,-0.46748 2.26958,-0.28076 4.03745,0.70898 4.03728,2.26027 l -8e-5,0.82111 h 1.98665 c 1.85414,0 2.02584,0.0392 2.57415,0.58695 l 0.58751,0.58696 -0.0213,10.45857 c -0.0213,10.427 -0.0228,10.46011 -0.50381,10.97211 -0.71814,0.76443 -1.81664,1.04561 -3.43655,0.87964 -1.40213,-0.14365 -1.40778,-0.14194 -1.40778,0.42537 0,1.5314 -2.01667,2.18416 -4.75531,1.53922 -1.25253,-0.29497 -1.72645,-0.32792 -1.95756,-0.13612 -0.41107,0.34116 -2.76113,0.51221 -3.55346,0.25864 z m 8.26752,-13.67383 c 4.3e-4,-6.30014 0.027,-11.70383 0.059,-12.00819 0.0564,-0.53583 0.0109,-0.55544 -1.43582,-0.61882 l -1.49411,-0.0654 v 11.92607 c 0,6.55935 0.0664,11.99249 0.14756,12.07365 0.0812,0.0812 0.72694,0.14756 1.43505,0.14756 h 1.28749 z m -4.97649,7.30409 c -0.001,-2.16069 -0.0264,-7.48947 -0.0553,-11.84174 l -0.0525,-7.91323 -1.38343,1e-4 -1.38343,1.2e-4 -0.0318,11.84206 -0.0318,11.84207 1.47054,-4.3e-4 1.47055,-4.4e-4 z m -5.862949,1.93975 0.774719,-0.003 -0.06,-9.40741 -0.0601,-9.40741 H 99.0479 97.613806 l -0.03821,4.26097 c -0.02102,2.34353 -0.04587,6.63561 -0.05534,9.53794 l -0.01713,5.27697 0.77472,-0.12816 c 0.426101,-0.0705 1.123351,-0.12924 1.549443,-0.13054 z m 15.987839,-9.29924 0.06,-9.51808 -1.4701,7e-5 -1.47011,7e-5 -0.15966,4.04525 c -0.0878,2.22489 -0.12351,6.50762 -0.0793,9.51718 l 0.0803,5.47193 1.48948,6.3e-4 1.48948,6.2e-4 z"
       style="fill:#000000;stroke-width:0.627446"
       id="path1-2" /><path
       d="m 135.45926,112.86004 c -1.32205,-0.67544 -2.15947,-1.78973 -2.43435,-3.23915 -0.4701,-2.4788 0.25034,-10.081256 1.31343,-13.860066 0.71003,-2.52379 2.72149,-6.28479 4.25813,-7.96176 1.39897,-1.52674 2.42057,-2.19167 3.75061,-2.44119 1.64792,-0.30915 3.69171,0.75674 4.31602,2.25093 0.18334,0.43881 0.30193,1.55127 0.30193,2.83254 0,2.2028 0.16395,2.51976 0.8007,1.54795 0.32303,-0.493 0.35761,-1.17891 0.28179,-5.58906 l -0.0864,-5.0271 1.60477,-0.065 c 1.19176,-0.0483 1.60951,0.009 1.62313,0.22135 0.0101,0.15751 0.003,2.53041 -0.0162,5.27312 -0.0324,4.6743 -0.008,5.01103 0.39384,5.37441 0.42011,0.38019 0.43045,0.34801 0.53589,-1.66771 0.1244,-2.37827 0.42376,-3.1019 1.75451,-4.24097 1.4467,-1.23832 2.88069,-1.31002 4.74731,-0.23739 1.65442,0.9507 3.9975,4.08771 5.1615,6.91044 0.8052,1.95265 1.9162,6.25519 2.24268,8.685216 0.42244,3.14419 0.3648,6.76052 -0.13227,8.29937 -0.78024,2.41547 -2.82364,3.81256 -4.73759,3.23913 -0.48294,-0.14469 -2.43382,-1.02084 -4.33527,-1.94699 -5.39316,-2.62689 -5.63276,-3.01645 -5.63276,-9.15802 0,-2.153056 0.0985,-4.433856 0.21881,-5.068436 l 0.21882,-1.1538 -1.10136,-1.07275 -1.10135,-1.07275 -0.49183,0.70223 c -0.27052,0.38622 -0.68141,0.84022 -0.91311,1.00888 -0.40063,0.29161 -0.41342,0.54233 -0.26093,5.115036 0.19248,5.77227 0.0146,6.74963 -1.50517,8.26934 -1.30135,1.30131 -8.05298,4.57027 -9.43933,4.57027 -0.19863,0 -0.7998,-0.22412 -1.33595,-0.49804 z m 5.32125,-3.54158 c 2.65975,-1.3354 3.31706,-1.76559 3.91568,-2.56273 l 0.71939,-0.95794 v -4.33768 -4.337686 l -0.5609,0.52695 c -0.5757,0.54083 -2.09529,3.361046 -2.09529,3.888646 0,0.16207 0.36275,0.95461 0.80611,1.7612 0.7955,1.44723 0.80137,1.47648 0.44628,2.22112 -0.57762,1.21126 -1.15797,1.02273 -1.90282,-0.61816 l -0.62313,-1.37272 -0.43056,0.87469 c -0.2368,0.48108 -0.39422,1.03326 -0.34979,1.22707 0.0444,0.1938 -0.0729,0.47992 -0.26076,0.63581 -0.29103,0.24153 -0.34152,0.20785 -0.34152,-0.22778 v -0.51122 l -0.62082,0.59479 c -0.78973,0.7566 -1.53686,0.78358 -1.71796,0.0621 -0.15885,-0.63293 0.0651,-1.09893 1.44594,-3.00883 0.57212,-0.79133 1.17192,-1.7874 1.3329,-2.2135 0.16097,-0.42609 0.48456,-1.098436 0.71909,-1.494096 0.25225,-0.42558 0.32503,-0.71939 0.17818,-0.71939 -0.58226,0 -2.00418,0.93253 -2.3724,1.555856 -0.63372,1.07279 -2.04702,1.14782 -2.24924,0.1194 -0.0992,-0.504656 0.57981,-1.230546 1.16046,-1.240516 0.42562,-0.007 0.41224,-0.0501 -0.16285,-0.52059 -0.47619,-0.3896 -0.609,-0.66661 -0.55337,-1.15413 l 0.0732,-0.64148 1.60479,0.0782 c 1.59102,0.0775 1.60478,0.0734 1.60478,-0.4834 0,-0.41389 -0.24702,-0.7275 -0.93913,-1.19233 -0.99976,-0.67145 -1.25606,-1.21134 -0.82284,-1.73334 0.57006,-0.68688 1.46296,-0.37888 2.95919,1.02077 l 1.43478,1.34216 0.82686,-0.75776 0.82687,-0.75777 -0.058,-2.51609 c -0.0644,-2.79005 -0.36317,-3.82744 -1.21404,-4.21512 -0.46707,-0.21281 -0.70191,-0.16256 -1.54247,0.33004 -2.8772,1.68615 -5.0808,5.98203 -6.09026,11.87286 -0.52081,3.039266 -0.78757,8.206676 -0.47889,9.276766 0.27581,0.95614 1.05112,1.79068 1.66359,1.79068 0.25999,0 1.91105,-0.72214 3.66901,-1.60478 z m 21.91256,1.15552 c 0.85482,-0.45748 1.09489,-1.36965 1.08765,-4.13274 -0.0111,-4.2357 -0.87637,-9.147916 -2.13115,-12.098536 -1.2951,-3.04541 -4.16416,-6.56354 -5.34975,-6.56002 -0.67768,0.002 -1.60186,0.95954 -1.81489,1.88037 -0.11266,0.48697 -0.2072,1.78803 -0.2101,2.89125 -0.005,1.96852 0.007,2.01486 0.6498,2.49018 1.84111,1.36118 4.07044,-3.62382 5.32891,-1.27232 0.317,0.5923 0.0707,0.88871 -1.47227,1.77148 -0.65532,0.37493 -1.19149,0.76238 -1.19149,0.86099 0,0.27395 0.86233,0.4459 2.25302,0.44924 1.56559,0.004 1.84435,0.26454 2.03725,1.90576 0.18509,1.574866 -0.0162,1.826766 -1.06314,1.33 -1.14912,-0.54529 -2.55947,-1.01924 -3.033,-1.01924 -0.36168,0 -0.29398,0.23178 0.53337,1.826126 0.5212,1.00437 1.41738,2.40274 1.99153,3.1075 1.19781,1.47028 1.43588,2.59778 0.54587,2.5852 -0.27392,-0.004 -0.69138,-0.15329 -0.9277,-0.33203 -0.60674,-0.45892 -0.78776,-0.40644 -0.78776,0.22839 0,0.34116 -0.12571,0.55337 -0.3278,0.55337 -0.1803,0 -0.37951,-0.24901 -0.4427,-0.55337 -0.27795,-1.33871 -0.34388,-1.56722 -0.53876,-1.86723 -0.26885,-0.41386 -0.74769,-0.0412 -1.12862,0.8785 -0.20582,0.4969 -0.41629,0.65671 -0.86494,0.65671 -1.4791,0 -1.52279,-1.45506 -0.0952,-3.17121 0.64653,-0.7772 0.66138,-1.65936 0.0483,-2.86937 -0.57181,-1.128626 -1.69755,-2.592036 -1.99394,-2.592036 -0.13488,0 -0.18999,1.70603 -0.14741,4.563396 l 0.068,4.5634 0.82379,0.71168 c 0.94078,0.81275 6.4415,3.4352 7.21467,3.43958 0.28192,0.001 0.70423,-0.0997 0.93844,-0.22502 z"
       style="fill:#000000;stroke-width:0.627446"
       id="path1-94" /><g
       id="g3"
       transform="matrix(-0.13173902,0,0,0.13173902,83.005757,117.52608)"><g
         id="g2"><path
           fill="#000000"
           d="m 135.2,229.1 h -11.5 c -0.7,-0.1 -1.5,-0.4 -2.2,-0.4 -7.3,-0.8 -14.7,-1.2 -21.9,-2.4 -8.9,-1.4 -17.5,-0.4 -25.8,2.8 h -4 c -0.2,-0.2 -0.3,-0.5 -0.5,-0.6 C 50.4,217.1 36.2,201.3 28,180.8 18.1,155.7 12.8,129.6 11.2,102.7 11,98.7 10.5,94.7 10.1,90.8 V 74 c 0.2,-1.1 0.5,-2.2 0.6,-3.3 C 12,59.5 16.2,49.8 24.5,41.9 31.2,35.5 38.3,29.6 47.5,27 h 6.9 c 2.2,0.9 4.6,1.5 6.5,2.8 5.5,4 11,8 16,12.5 2.3,2 3.7,5.3 4.7,8.3 0.8,2.4 0.9,5.2 -2,6.8 -0.4,0.2 -0.6,0.9 -0.6,1.4 -0.6,3.9 -2.5,6.5 -6,6.8 -1.1,1.9 -1.7,3.7 -2.9,4.6 -2.3,1.8 -4.9,3 -7.3,5.1 -3.7,3.3 -11.9,1.4 -14.9,-2.6 -0.9,0.3 -1.7,0.9 -2.5,1.3 -0.9,0.5 -1.9,0.8 -2.9,1.2 -2.2,0.8 -2.9,2.3 -2.1,4.6 5.1,14.9 11.8,28.8 23.6,39.8 9.6,9 16.8,19.8 21.9,31.9 0.8,1.9 1.6,3.7 2.6,6 6.7,-34.6 27.2,-49.3 61.6,-44.6 -6.9,-21 3.2,-38.6 16.9,-47 13.8,-8.4 28.9,-10.7 44.5,-7.7 16.8,3.2 26.5,14.6 31.5,30.4 1.4,4.3 2,8.9 2.9,13.4 v 12.1 c -0.7,3 -1.1,6 -2,8.9 -5.2,17.6 -17.3,29.1 -33.3,37 -1.8,0.9 -2.7,2 -3.3,3.8 -4.2,12.1 -10,23.4 -17.7,33.6 -11,14.5 -24.6,25.3 -42.7,29.6 -3.7,1 -7.7,1.4 -11.7,2.1 z"
           id="path1-1" /></g></g><text
       xml:space="preserve"
       style="font-size:36.1146px;fill:#000000;stroke-width:3.00953"
       x="96.869881"
       y="109.01301"
       id="text1"><tspan
         sodipodi:role="line"
         id="tspan1"
         x="96.869881"
         y="109.01301"
         style="font-style:normal;font-variant:normal;font-weight:normal;font-stretch:normal;font-family:CPMono_v07;-inkscape-font-specification:CPMono_v07;stroke-width:3.00953">F</tspan></text><text
       xml:space="preserve"
       style="font-size:36.1146px;fill:#000000;stroke-width:3.00953"
       x="137.82822"
       y="186.32301"
       id="text2"><tspan
         sodipodi:role="line"
         id="tspan2"
         x="137.82822"
         y="186.32301"
         style="font-style:normal;font-variant:normal;font-weight:normal;font-stretch:normal;font-family:CPMono_v07;-inkscape-font-specification:CPMono_v07;stroke-width:3.00953">A</tspan></text></g></svg>
